Selawik-Bold.ufo
<glyph name="exclam" format="1">
  <advance width="670"/>
  <unicode hex="0021"/>
  <outline>
    <contour>
      <point x="460" y="454" type="line"/>
      <point x="479" y="1434" type="line"/>
      <point x="207" y="1434" type="line"/>
      <point x="225" y="454" type="line"/>
    </contour>
    <component base="period" xOffset="47"/>
  </outline>
</glyph>
<glyph name="quotedbl" format="1">
  <advance width="1010"/>
  <unicode hex="0022"/>
  <outline>
    <contour>
      <point x="819" y="1000" type="line"/>
      <point x="819" y="1468" type="line"/>
      <point x="579" y="1468" type="line"/>
      <point x="579" y="1000" type="line"/>
    </contour>
    <contour>
      <point x="431" y="1000" type="line"/>
      <point x="431" y="1468" type="line"/>
      <point x="191" y="1468" type="line"/>
      <point x="191" y="1000" type="line"/>
    </contour>
  </outline>
</glyph>
<glyph name="numbersign" format="1">
  <advance width="1213"/>
  <unicode hex="0023"/>
  <outline>
    <contour>
      <point x="775" y="123" type="line"/>
      <point x="1056" y="1438" type="line"/>
      <point x="849" y="1438" type="line"/>
      <point x="568" y="123" type="line"/>
    </contour>
    <contour>
      <point x="1076" y="458" type="line"/>
      <point x="1105" y="655" type="line"/>
      <point x="68" y="655" type="line"/>
      <point x="39" y="458" type="line"/>
    </contour>
    <contour>
      <point x="377" y="119" type="line"/>
      <point x="655" y="1434" type="line"/>
      <point x="442" y="1434" type="line"/>
      <point x="167" y="119" type="line"/>
    </contour>
    <contour>
      <point x="1146" y="885" type="line"/>
      <point x="1175" y="1082" type="line"/>
      <point x="138" y="1082" type="line"/>
      <point x="109" y="885" type="line"/>
    </contour>
  </outline>
</glyph>
<glyph name="ampersand" format="1">
  <advance width="1740"/>
  <unicode hex="0026"/>
  <outline>
    <contour>
      <point x="1218" y="510"/>
      <point x="885" y="217"/>
      <point x="585" y="217" type="curve" smooth="yes"/>
      <point x="457" y="217"/>
      <point x="394" y="255"/>
      <point x="394" y="332" type="curve" smooth="yes"/>
      <point x="394" y="566"/>
      <point x="1204" y="607"/>
      <point x="1204" y="1087" type="curve" smooth="yes"/>
      <point x="1204" y="1336"/>
      <point x="1066" y="1459"/>
      <point x="788" y="1459" type="curve" smooth="yes"/>
      <point x="501" y="1459"/>
      <point x="359" y="1332"/>
      <point x="359" y="1077" type="curve" smooth="yes"/>
      <point x="359" y="758"/>
      <point x="824" y="227"/>
      <point x="1636" y="-42" type="curve"/>
      <point x="1718" y="166" type="line"/>
      <point x="1032" y="445"/>
      <point x="639" y="834"/>
      <point x="639" y="1077" type="curve" smooth="yes"/>
      <point x="639" y="1199"/>
      <point x="689" y="1259"/>
      <point x="788" y="1259" type="curve" smooth="yes"/>
      <point x="886" y="1259"/>
      <point x="934" y="1206"/>
      <point x="934" y="1098" type="curve" smooth="yes"/>
      <point x="934" y="728"/>
      <point x="114" y="797"/>
      <point x="114" y="342" type="curve" smooth="yes"/>
      <point x="114" y="128"/>
      <point x="257" y="-23"/>
      <point x="545" y="-23" type="curve" smooth="yes"/>
      <point x="964" y="-23"/>
      <point x="1419" y="316"/>
      <point x="1604" y="766" type="curve"/>
      <point x="1387" y="872" type="line"/>
    </contour>
  </outline>
</glyph>
<glyph name="quotesingle" format="1">
  <advance width="600"/>
  <unicode hex="0027"/>
  <outline>
    <contour>
      <point x="415" y="1000" type="line"/>
      <point x="415" y="1468" type="line"/>
      <point x="175" y="1468" type="line"/>
      <point x="175" y="1000" type="line"/>
    </contour>
  </outline>
</glyph>
<glyph name="parenleft" format="1">
  <advance width="756"/>
  <unicode hex="0028"/>
  <outline>
    <contour>
      <point x="659" y="-206" type="line"/>
      <point x="501" y="33"/>
      <point x="434" y="258"/>
      <point x="434" y="549" type="curve" smooth="yes"/>
      <point x="434" y="845"/>
      <point x="504" y="1076"/>
      <point x="667" y="1324" type="curve"/>
      <point x="481" y="1434" type="line"/>
      <point x="254" y="1165"/>
      <point x="158" y="900"/>
      <point x="158" y="549" type="curve" smooth="yes"/>
      <point x="158" y="185"/>
      <point x="254" y="-76"/>
      <point x="481" y="-326" type="curve"/>
    </contour>
  </outline>
</glyph>
<glyph name="asterisk" format="1">
  <advance width="932"/>
  <unicode hex="002A"/>
  <outline>
    <contour>
      <point x="507" y="1017" type="line"/>
      <point x="834" y="1175" type="line"/>
      <point x="741" y="1337" type="line"/>
      <point x="450" y="1138" type="line"/>
      <point x="124" y="981" type="line"/>
      <point x="217" y="819" type="line"/>
    </contour>
    <contour>
      <point x="834" y="981" type="line"/>
      <point x="509" y="1138" type="line"/>
      <point x="217" y="1337" type="line"/>
      <point x="124" y="1175" type="line"/>
      <point x="450" y="1018" type="line"/>
      <point x="741" y="819" type="line"/>
    </contour>
    <contour>
      <point x="572" y="722" type="line"/>
      <point x="547" y="1078" type="line"/>
      <point x="572" y="1434" type="line"/>
      <point x="386" y="1434" type="line"/>
      <point x="411" y="1079" type="line"/>
      <point x="386" y="722" type="line"/>
    </contour>
  </outline>
</glyph>
<glyph name="plus" format="1">
  <advance width="1448"/>
  <unicode hex="002B"/>
  <outline>
    <contour>
      <point x="857" y="80" type="line"/>
      <point x="857" y="455" type="line"/>
      <point x="1232" y="455" type="line"/>
      <point x="1232" y="718" type="line"/>
      <point x="857" y="718" type="line"/>
      <point x="857" y="1095" type="line"/>
      <point x="595" y="1095" type="line"/>
      <point x="595" y="718" type="line"/>
      <point x="218" y="718" type="line"/>
      <point x="218" y="455" type="line"/>
      <point x="595" y="455" type="line"/>
      <point x="595" y="80" type="line"/>
    </contour>
  </outline>
</glyph>
<glyph name="comma" format="1">
  <advance width="555"/>
  <unicode hex="002C"/>
  <outline>
    <contour>
      <point x="382" y="-173"/>
      <point x="445" y="24"/>
      <point x="446" y="238" type="curve"/>
      <point x="176" y="238" type="line"/>
      <point x="162" y="109"/>
      <point x="117" y="-44"/>
      <point x="29" y="-184" type="curve"/>
      <point x="256" y="-304" type="line"/>
    </contour>
  </outline>
</glyph>
<glyph name="hyphen" format="1">
  <advance width="828"/>
  <unicode hex="002D"/>
  <outline>
    <contour>
      <point x="690" y="407" type="line"/>
      <point x="690" y="627" type="line"/>
      <point x="143" y="627" type="line"/>
      <point x="143" y="407" type="line"/>
    </contour>
  </outline>
</glyph>
<glyph name="period" format="1">
  <advance width="555"/>
  <unicode hex="002E"/>
  <outline>
    <contour>
      <point x="386" y="-22"/>
      <point x="452" y="41"/>
      <point x="452" y="137" type="curve" smooth="yes"/>
      <point x="452" y="233"/>
      <point x="386" y="297"/>
      <point x="287" y="297" type="curve" smooth="yes"/>
      <point x="188" y="297"/>
      <point x="123" y="233"/>
      <point x="123" y="137" type="curve" smooth="yes"/>
      <point x="123" y="41"/>
      <point x="188" y="-22"/>
      <point x="287" y="-22" type="curve" smooth="yes"/>
    </contour>
  </outline>
</glyph>
<glyph name="zero" format="1">
  <advance width="1178"/>
  <unicode hex="0030"/>
  <outline>
    <contour>
      <point x="896" y="-27"/>
      <point x="1080" y="246"/>
      <point x="1080" y="722" type="curve" smooth="yes"/>
      <point x="1080" y="1189"/>
      <point x="908" y="1456"/>
      <point x="607" y="1456" type="curve"/>
      <point x="607" y="1458" type="line"/>
      <point x="283" y="1458"/>
      <point x="98" y="1177"/>
      <point x="98" y="687" type="curve" smooth="yes"/>
      <point x="98" y="233"/>
      <point x="272" y="-27"/>
      <point x="576" y="-27" type="curve" smooth="yes"/>
    </contour>
    <contour>
      <point x="479" y="248"/>
      <point x="413" y="410"/>
      <point x="413" y="694" type="curve" smooth="yes"/>
      <point x="413" y="1005"/>
      <point x="481" y="1183"/>
      <point x="600" y="1183" type="curve" smooth="yes"/>
      <point x="705" y="1183"/>
      <point x="766" y="1009"/>
      <point x="766" y="706" type="curve" smooth="yes"/>
      <point x="766" y="415"/>
      <point x="703" y="249"/>
      <point x="594" y="249" type="curve"/>
      <point x="593" y="248" type="line"/>
    </contour>
  </outline>
</glyph>
<glyph name="one" format="1">
  <advance width="1178"/>
  <unicode hex="0031"/>
  <outline>
    <contour>
      <point x="845" y="-1" type="line"/>
      <point x="844" y="1466" type="line"/>
      <point x="689" y="1466" type="line"/>
      <point x="165" y="1320" type="line"/>
      <point x="221" y="1047" type="line"/>
      <point x="553" y="1123" type="line"/>
      <point x="553" y="-1" type="line"/>
    </contour>
  </outline>
</glyph>
<glyph name="two" format="1">
  <advance width="1178"/>
  <unicode hex="0032"/>
  <outline>
    <contour>
      <point x="1013" y="0" type="line"/>
      <point x="1013" y="267" type="line"/>
      <point x="494" y="267" type="line"/>
      <point x="494" y="505"/>
      <point x="958" y="573"/>
      <point x="958" y="1073" type="curve" smooth="yes"/>
      <point x="958" y="1612"/>
      <point x="265" y="1441"/>
      <point x="127" y="1418" type="curve"/>
      <point x="153" y="1129" type="line"/>
      <point x="280" y="1158"/>
      <point x="660" y="1275"/>
      <point x="660" y="1028" type="curve" smooth="yes"/>
      <point x="660" y="639"/>
      <point x="118" y="691"/>
      <point x="118" y="61" type="curve"/>
      <point x="118" y="0" type="line"/>
    </contour>
  </outline>
</glyph>
<glyph name="three" format="1">
  <advance width="1178"/>
  <unicode hex="0033"/>
  <outline>
    <contour>
      <point x="266" y="-14"/>
      <point x="1011" y="-156"/>
      <point x="1011" y="405" type="curve" smooth="yes"/>
      <point x="1011" y="568"/>
      <point x="902" y="725"/>
      <point x="685" y="747" type="curve"/>
      <point x="685" y="751" type="line"/>
      <point x="868" y="804"/>
      <point x="962" y="923"/>
      <point x="962" y="1115" type="curve" smooth="yes"/>
      <point x="962" y="1574"/>
      <point x="341" y="1450"/>
      <point x="210" y="1431" type="curve"/>
      <point x="228" y="1191" type="line"/>
      <point x="320" y="1213"/>
      <point x="648" y="1260"/>
      <point x="648" y="1074" type="curve" smooth="yes"/>
      <point x="648" y="940"/>
      <point x="527" y="890"/>
      <point x="348" y="890" type="curve"/>
      <point x="354" y="591" type="line"/>
      <point x="557" y="591"/>
      <point x="699" y="539"/>
      <point x="699" y="390" type="curve" smooth="yes"/>
      <point x="699" y="198"/>
      <point x="309" y="231"/>
      <point x="187" y="273" type="curve"/>
      <point x="159" y="19" type="line"/>
    </contour>
  </outline>
</glyph>
<glyph name="four" format="1">
  <advance width="1178"/>
  <unicode hex="0034"/>
  <outline>
    <contour>
      <point x="986" y="-1" type="line"/>
      <point x="986" y="256" type="line"/>
      <point x="1130" y="256" type="line"/>
      <point x="1130" y="491" type="line"/>
      <point x="986" y="491" type="line"/>
      <point x="986" y="1433" type="line"/>
      <point x="709" y="1434" type="line"/>
      <point x="47" y="428" type="line"/>
      <point x="47" y="256" type="line"/>
      <point x="721" y="256" type="line"/>
      <point x="721" y="-1" type="line"/>
    </contour>
    <contour>
      <point x="721" y="988" type="line"/>
      <point x="721" y="491" type="line"/>
      <point x="391" y="491" type="line"/>
    </contour>
  </outline>
</glyph>
<glyph name="five" format="1">
  <advance width="1178"/>
  <unicode hex="0035"/>
  <outline>
    <contour>
      <point x="232" y="-11"/>
      <point x="1027" y="-181"/>
      <point x="1027" y="441" type="curve" smooth="yes"/>
      <point x="1027" y="696"/>
      <point x="890" y="890"/>
      <point x="585" y="890" type="curve" smooth="yes"/>
      <point x="573" y="890"/>
      <point x="522" y="886"/>
      <point x="503" y="885" type="curve"/>
      <point x="513" y="1156" type="line"/>
      <point x="948" y="1156" type="line"/>
      <point x="953" y="1434" type="line"/>
      <point x="230" y="1434" type="line"/>
      <point x="201" y="615" type="line"/>
      <point x="260" y="621"/>
      <point x="398" y="627"/>
      <point x="452" y="627" type="curve" smooth="yes"/>
      <point x="614" y="627"/>
      <point x="729" y="564"/>
      <point x="729" y="428" type="curve" smooth="yes"/>
      <point x="729" y="150"/>
      <point x="262" y="257"/>
      <point x="181" y="287" type="curve"/>
      <point x="150" y="36" type="line"/>
    </contour>
  </outline>
</glyph>
<glyph name="six" format="1">
  <advance width="1178"/>
  <unicode hex="0036"/>
  <outline>
    <contour>
      <point x="858" y="-26"/>
      <point x="1070" y="143"/>
      <point x="1070" y="466" type="curve" smooth="yes"/>
      <point x="1070" y="680"/>
      <point x="955" y="910"/>
      <point x="657" y="910" type="curve" smooth="yes"/>
      <point x="413" y="910"/>
      <point x="304" y="740"/>
      <point x="271" y="678" type="curve"/>
      <point x="286" y="421" type="line"/>
      <point x="301" y="506"/>
      <point x="389" y="627"/>
      <point x="601" y="617" type="curve" smooth="yes"/>
      <point x="735" y="617"/>
      <point x="780" y="528"/>
      <point x="780" y="442" type="curve" smooth="yes"/>
      <point x="780" y="340"/>
      <point x="740" y="245"/>
      <point x="614" y="245" type="curve" smooth="yes"/>
      <point x="400" y="245"/>
      <point x="412" y="484"/>
      <point x="407" y="621" type="curve" smooth="yes"/>
      <point x="394" y="973"/>
      <point x="444" y="1225"/>
      <point x="931" y="1148" type="curve"/>
      <point x="961" y="1432" type="line"/>
      <point x="378" y="1531"/>
      <point x="107" y="1313"/>
      <point x="107" y="630" type="curve" smooth="yes"/>
      <point x="107" y="353"/>
      <point x="175" y="-26"/>
      <point x="606" y="-26" type="curve" smooth="yes"/>
    </contour>
  </outline>
</glyph>
<glyph name="seven" format="1">
  <advance width="1178"/>
  <unicode hex="0037"/>
  <outline>
    <contour>
      <point x="661" y="0" type="line"/>
      <point x="1118" y="1341" type="line"/>
      <point x="1116" y="1434" type="line"/>
      <point x="148" y="1434" type="line"/>
      <point x="148" y="1146" type="line"/>
      <point x="746" y="1146" type="line"/>
      <point x="355" y="0" type="line"/>
    </contour>
  </outline>
</glyph>
<glyph name="eight" format="1">
  <advance width="1178"/>
  <unicode hex="0038"/>
  <outline>
    <contour>
      <point x="886" y="-23"/>
      <point x="1079" y="145"/>
      <point x="1079" y="400" type="curve" smooth="yes"/>
      <point x="1079" y="564"/>
      <point x="966" y="714"/>
      <point x="795" y="776" type="curve"/>
      <point x="929" y="846"/>
      <point x="1017" y="971"/>
      <point x="1017" y="1090" type="curve" smooth="yes"/>
      <point x="1017" y="1312"/>
      <point x="849" y="1458"/>
      <point x="594" y="1458" type="curve" smooth="yes"/>
      <point x="334" y="1458"/>
      <point x="163" y="1312"/>
      <point x="163" y="1090" type="curve" smooth="yes"/>
      <point x="163" y="969"/>
      <point x="256" y="844"/>
      <point x="396" y="776" type="curve"/>
      <point x="218" y="715"/>
      <point x="100" y="566"/>
      <point x="100" y="400" type="curve" smooth="yes"/>
      <point x="100" y="145"/>
      <point x="296" y="-23"/>
      <point x="593" y="-23" type="curve" smooth="yes"/>
    </contour>
    <contour>
      <point x="480" y="215"/>
      <point x="403" y="294"/>
      <point x="403" y="414" type="curve" smooth="yes"/>
      <point x="403" y="527"/>
      <point x="480" y="601"/>
      <point x="597" y="601" type="curve" smooth="yes"/>
      <point x="714" y="601"/>
      <point x="791" y="527"/>
      <point x="791" y="413" type="curve" smooth="yes"/>
      <point x="791" y="293"/>
      <point x="715" y="215"/>
      <point x="598" y="215" type="curve" smooth="yes"/>
    </contour>
    <contour>
      <point x="513" y="936"/>
      <point x="456" y="993"/>
      <point x="456" y="1081" type="curve" smooth="yes"/>
      <point x="456" y="1168"/>
      <point x="513" y="1225"/>
      <point x="601" y="1225" type="curve" smooth="yes"/>
      <point x="680" y="1225"/>
      <point x="731" y="1168"/>
      <point x="731" y="1081" type="curve" smooth="yes"/>
      <point x="731" y="993"/>
      <point x="679" y="936"/>
      <point x="599" y="936" type="curve" smooth="yes"/>
    </contour>
  </outline>
</glyph>
<glyph name="nine" format="1">
  <advance width="1178"/>
  <unicode hex="0039"/>
  <outline>
    <contour>
      <point x="897" y="-117"/>
      <point x="1057" y="287"/>
      <point x="1057" y="799" type="curve" smooth="yes"/>
      <point x="1057" y="1206"/>
      <point x="924" y="1459"/>
      <point x="558" y="1459" type="curve" smooth="yes"/>
      <point x="274" y="1459"/>
      <point x="96" y="1260"/>
      <point x="96" y="988" type="curve" smooth="yes"/>
      <point x="96" y="684"/>
      <point x="294" y="530"/>
      <point x="504" y="530" type="curve" smooth="yes"/>
      <point x="691" y="530"/>
      <point x="805" y="600"/>
      <point x="850" y="740" type="curve"/>
      <point x="836" y="1021" type="line"/>
      <point x="799" y="872"/>
      <point x="717" y="798"/>
      <point x="590" y="798" type="curve" smooth="yes"/>
      <point x="484" y="798"/>
      <point x="399" y="866"/>
      <point x="399" y="1011" type="curve" smooth="yes"/>
      <point x="399" y="1106"/>
      <point x="436" y="1201"/>
      <point x="567" y="1201" type="curve" smooth="yes"/>
      <point x="714" y="1201"/>
      <point x="765" y="1093"/>
      <point x="767" y="815" type="curve"/>
      <point x="768" y="436"/>
      <point x="696" y="199"/>
      <point x="265" y="285" type="curve"/>
      <point x="245" y="-4" type="line"/>
    </contour>
  </outline>
</glyph>
<glyph name="colon" format="1">
  <advance width="555"/>
  <unicode hex="003A"/>
  <outline>
    <contour>
      <point x="386" y="667"/>
      <point x="463" y="743"/>
      <point x="463" y="852" type="curve" smooth="yes"/>
      <point x="463" y="959"/>
      <point x="387" y="1036"/>
      <point x="279" y="1036" type="curve" smooth="yes"/>
      <point x="172" y="1036"/>
      <point x="92" y="960"/>
      <point x="92" y="852" type="curve" smooth="yes"/>
      <point x="92" y="748"/>
      <point x="170" y="667"/>
      <point x="274" y="667" type="curve" smooth="yes"/>
    </contour>
    <contour>
      <point x="386" y="-25"/>
      <point x="463" y="52"/>
      <point x="463" y="161" type="curve" smooth="yes"/>
      <point x="463" y="268"/>
      <point x="387" y="345"/>
      <point x="279" y="345" type="curve" smooth="yes"/>
      <point x="172" y="345"/>
      <point x="92" y="269"/>
      <point x="92" y="161" type="curve" smooth="yes"/>
      <point x="92" y="57"/>
      <point x="170" y="-25"/>
      <point x="274" y="-25" type="curve" smooth="yes"/>
    </contour>
  </outline>
</glyph>
<glyph name="semicolon" format="1">
  <advance width="555"/>
  <unicode hex="003B"/>
  <outline>
    <contour>
      <point x="386" y="667"/>
      <point x="463" y="743"/>
      <point x="463" y="852" type="curve" smooth="yes"/>
      <point x="463" y="959"/>
      <point x="387" y="1036"/>
      <point x="279" y="1036" type="curve" smooth="yes"/>
      <point x="172" y="1036"/>
      <point x="92" y="960"/>
      <point x="92" y="852" type="curve" smooth="yes"/>
      <point x="92" y="748"/>
      <point x="170" y="667"/>
      <point x="274" y="667" type="curve" smooth="yes"/>
    </contour>
    <component base="comma" xOffset="40"/>
  </outline>
</glyph>
<glyph name="equal" format="1">
  <advance width="1448"/>
  <unicode hex="003D"/>
  <outline>
    <contour>
      <point x="1212" y="620" type="line"/>
      <point x="1212" y="885" type="line"/>
      <point x="238" y="885" type="line"/>
      <point x="238" y="620" type="line"/>
    </contour>
    <contour>
      <point x="1212" y="166" type="line"/>
      <point x="1212" y="429" type="line"/>
      <point x="238" y="429" type="line"/>
      <point x="238" y="166" type="line"/>
    </contour>
  </outline>
</glyph>
<glyph name="greater" format="1">
  <advance width="1448"/>
  <unicode hex="003E"/>
  <outline>
    <contour>
      <point x="1192" y="502" type="line"/>
      <point x="1192" y="664" type="line"/>
      <point x="258" y="1108" type="line"/>
      <point x="258" y="800" type="line"/>
      <point x="776" y="584" type="line"/>
      <point x="776" y="580" type="line"/>
      <point x="258" y="373" type="line"/>
      <point x="258" y="76" type="line"/>
    </contour>
  </outline>
</glyph>
<glyph name="question" format="1">
  <advance width="897"/>
  <unicode hex="003F"/>
  <outline>
    <contour>
      <point x="520" y="360" type="line"/>
      <point x="520" y="528" type="line" smooth="yes"/>
      <point x="520" y="782"/>
      <point x="824" y="714"/>
      <point x="824" y="1103" type="curve" smooth="yes"/>
      <point x="824" y="1329"/>
      <point x="677" y="1458"/>
      <point x="420" y="1458" type="curve" smooth="yes"/>
      <point x="319" y="1458"/>
      <point x="211" y="1444"/>
      <point x="124" y="1420" type="curve"/>
      <point x="161" y="1183" type="line"/>
      <point x="253" y="1205"/>
      <point x="342" y="1218"/>
      <point x="407" y="1218" type="curve" smooth="yes"/>
      <point x="491" y="1217"/>
      <point x="540" y="1166"/>
      <point x="541" y="1079" type="curve" smooth="yes"/>
      <point x="544" y="829"/>
      <point x="270" y="918"/>
      <point x="270" y="522" type="curve"/>
      <point x="270" y="360" type="line"/>
    </contour>
    <component base="period" xOffset="110"/>
  </outline>
</glyph>
<glyph name="A" format="1">
  <advance width="1440"/>
  <unicode hex="0041"/>
  <outline>
    <contour>
      <point x="348" y="0" type="line"/>
      <point x="688" y="1073" type="line"/>
      <point x="693" y="1085"/>
      <point x="709" y="1149"/>
      <point x="712" y="1169" type="curve"/>
      <point x="716" y="1169" type="line"/>
      <point x="720" y="1147"/>
      <point x="736" y="1083"/>
      <point x="739" y="1073" type="curve"/>
      <point x="1080" y="0" type="line"/>
      <point x="1425" y="0" type="line"/>
      <point x="914" y="1434" type="line"/>
      <point x="532" y="1434" type="line"/>
      <point x="10" y="0" type="line"/>
    </contour>
    <contour>
      <point x="1168" y="260" type="line"/>
      <point x="1168" y="496" type="line"/>
      <point x="346" y="496" type="line"/>
      <point x="346" y="260" type="line"/>
    </contour>
    <contour>
      <point x="1296" y="10" type="move" name="ogonek"/>
    </contour>
    <contour>
      <point x="720" y="0" type="move" name="bottom"/>
    </contour>
    <contour>
      <point x="720" y="1384" type="move" name="top"/>
    </contour>
  </outline>
</glyph>
<glyph name="B" format="1">
  <advance width="1313"/>
  <unicode hex="0042"/>
  <outline>
    <contour>
      <point x="1019" y="0"/>
      <point x="1241" y="158"/>
      <point x="1241" y="412" type="curve" smooth="yes"/>
      <point x="1241" y="605"/>
      <point x="1104" y="741"/>
      <point x="882" y="763" type="curve"/>
      <point x="882" y="767" type="line"/>
      <point x="1070" y="818"/>
      <point x="1180" y="943"/>
      <point x="1180" y="1107" type="curve" smooth="yes"/>
      <point x="1180" y="1316"/>
      <point x="986" y="1435"/>
      <point x="726" y="1435" type="curve" smooth="yes"/>
      <point x="164" y="1435" type="line"/>
      <point x="164" y="1" type="line"/>
      <point x="736" y="0" type="line" smooth="yes"/>
    </contour>
    <contour>
      <point x="478" y="627" type="line"/>
      <point x="640" y="627" type="line" smooth="yes"/>
      <point x="813" y="627"/>
      <point x="912" y="556"/>
      <point x="912" y="432" type="curve" smooth="yes"/>
      <point x="912" y="303"/>
      <point x="826" y="229"/>
      <point x="676" y="229" type="curve" smooth="yes"/>
      <point x="478" y="229" type="line"/>
    </contour>
    <contour>
      <point x="477" y="1206" type="line"/>
      <point x="639" y="1206" type="line" smooth="yes"/>
      <point x="773" y="1206"/>
      <point x="850" y="1140"/>
      <point x="850" y="1026" type="curve" smooth="yes"/>
      <point x="850" y="913"/>
      <point x="765" y="847"/>
      <point x="619" y="847" type="curve" smooth="yes"/>
      <point x="477" y="847" type="line"/>
    </contour>
    <contour>
      <point x="657" y="1434" type="move" name="top"/>
    </contour>
    <contour>
      <point x="657" y="0" type="move" name="bottom"/>
    </contour>
  </outline>
</glyph>
<glyph name="C" format="1">
  <advance width="1278"/>
  <unicode hex="0043"/>
  <outline>
    <contour>
      <point x="900" y="-20"/>
      <point x="1051" y="1"/>
      <point x="1191" y="55" type="curve"/>
      <point x="1125" y="343" type="line"/>
      <point x="994" y="301"/>
      <point x="870" y="277"/>
      <point x="783" y="277" type="curve" smooth="yes"/>
      <point x="538" y="277"/>
      <point x="398" y="438"/>
      <point x="398" y="721" type="curve" smooth="yes"/>
      <point x="398" y="1005"/>
      <point x="564" y="1167"/>
      <point x="854" y="1167" type="curve" smooth="yes"/>
      <point x="948" y="1167"/>
      <point x="1038" y="1154"/>
      <point x="1101" y="1131" type="curve"/>
      <point x="1180" y="1416" type="line"/>
      <point x="1070" y="1444"/>
      <point x="952" y="1460"/>
      <point x="856" y="1460" type="curve" smooth="yes"/>
      <point x="359" y="1460"/>
      <point x="74" y="1188"/>
      <point x="74" y="713" type="curve" smooth="yes"/>
      <point x="74" y="247"/>
      <point x="324" y="-20"/>
      <point x="760" y="-20" type="curve" smooth="yes"/>
    </contour>
    <contour>
      <point x="719" y="1384" type="move" name="top"/>
    </contour>
    <contour>
      <point x="639" y="0" type="move" name="bottom"/>
    </contour>
  </outline>
</glyph>
<glyph name="D" format="1">
  <advance width="1510"/>
  <unicode hex="0044"/>
  <outline>
    <contour>
      <point x="700" y="0" type="line" smooth="yes"/>
      <point x="1140" y="2"/>
      <point x="1435" y="280"/>
      <point x="1435" y="734" type="curve" smooth="yes"/>
      <point x="1435" y="1212"/>
      <point x="1186" y="1434"/>
      <point x="715" y="1434" type="curve" smooth="yes"/>
      <point x="164" y="1434" type="line"/>
      <point x="164" y="-2" type="line"/>
    </contour>
    <contour>
      <point x="478" y="1171" type="line"/>
      <point x="711" y="1173" type="line" smooth="yes"/>
      <point x="974" y="1175"/>
      <point x="1115" y="1031"/>
      <point x="1115" y="728" type="curve" smooth="yes"/>
      <point x="1115" y="432"/>
      <point x="964" y="263"/>
      <point x="702" y="263" type="curve" smooth="yes"/>
      <point x="478" y="263" type="line"/>
    </contour>
    <contour>
      <point x="755" y="717" type="move" name="center"/>
    </contour>
    <contour>
      <point x="755" y="0" type="move" name="bottom"/>
    </contour>
    <contour>
      <point x="725" y="1384" type="move" name="top"/>
    </contour>
  </outline>
</glyph>
<glyph name="E" format="1">
  <advance width="1090"/>
  <unicode hex="0045"/>
  <outline>
    <contour>
      <point x="1024" y="0" type="line"/>
      <point x="1024" y="252" type="line"/>
      <point x="478" y="252" type="line"/>
      <point x="478" y="597" type="line"/>
      <point x="930" y="597" type="line"/>
      <point x="930" y="853" type="line"/>
      <point x="478" y="853" type="line"/>
      <point x="478" y="1181" type="line"/>
      <point x="992" y="1181" type="line"/>
      <point x="992" y="1434" type="line"/>
      <point x="164" y="1434" type="line"/>
      <point x="164" y="0" type="line"/>
    </contour>
    <contour>
      <point x="935" y="10" type="move" name="ogonek"/>
    </contour>
    <contour>
      <point x="545" y="0" type="move" name="bottom"/>
    </contour>
    <contour>
      <point x="575" y="1384" type="move" name="top"/>
    </contour>
  </outline>
</glyph>
<glyph name="F" format="1">
  <advance width="1065"/>
  <unicode hex="0046"/>
  <outline>
    <contour>
      <point x="477" y="0" type="line"/>
      <point x="477" y="562" type="line"/>
      <point x="931" y="562" type="line"/>
      <point x="931" y="820" type="line"/>
      <point x="477" y="820" type="line"/>
      <point x="477" y="1181" type="line"/>
      <point x="993" y="1181" type="line"/>
      <point x="993" y="1434" type="line"/>
      <point x="164" y="1434" type="line"/>
      <point x="164" y="0" type="line"/>
    </contour>
    <contour>
      <point x="533" y="1434" type="move" name="top"/>
    </contour>
    <contour>
      <point x="533" y="0" type="move" name="bottom"/>
    </contour>
  </outline>
</glyph>
<glyph name="G" format="1">
  <advance width="1456"/>
  <unicode hex="0047"/>
  <outline>
    <contour>
      <point x="977" y="-22"/>
      <point x="1181" y="22"/>
      <point x="1340" y="100" type="curve"/>
      <point x="1339" y="819" type="line"/>
      <point x="787" y="819" type="line"/>
      <point x="787" y="569" type="line"/>
      <point x="1030" y="569" type="line"/>
      <point x="1030" y="304" type="line"/>
      <point x="982" y="266"/>
      <point x="909" y="247"/>
      <point x="829" y="247" type="curve" smooth="yes"/>
      <point x="567" y="247"/>
      <point x="414" y="423"/>
      <point x="414" y="711" type="curve" smooth="yes"/>
      <point x="414" y="1007"/>
      <point x="591" y="1177"/>
      <point x="899" y="1177" type="curve" smooth="yes"/>
      <point x="1024" y="1177"/>
      <point x="1170" y="1151"/>
      <point x="1226" y="1140" type="curve"/>
      <point x="1311" y="1413" type="line"/>
      <point x="1198" y="1434"/>
      <point x="1026" y="1459"/>
      <point x="877" y="1459" type="curve" smooth="yes"/>
      <point x="427" y="1459"/>
      <point x="74" y="1183"/>
      <point x="74" y="700" type="curve" smooth="yes"/>
      <point x="74" y="241"/>
      <point x="388" y="-22"/>
      <point x="780" y="-22" type="curve" smooth="yes"/>
    </contour>
    <contour>
      <point x="798" y="1384" type="move" name="top"/>
    </contour>
    <contour>
      <point x="728" y="0" type="move" name="bottom"/>
    </contour>
  </outline>
</glyph>
<glyph name="H" format="1">
  <advance width="1569"/>
  <unicode hex="0048"/>
  <outline>
    <contour>
      <point x="475" y="0" type="line"/>
      <point x="475" y="584" type="line"/>
      <point x="1089" y="584" type="line"/>
      <point x="1089" y="0" type="line"/>
      <point x="1405" y="0" type="line"/>
      <point x="1405" y="1434" type="line"/>
      <point x="1089" y="1434" type="line"/>
      <point x="1089" y="852" type="line"/>
      <point x="475" y="852" type="line"/>
      <point x="475" y="1434" type="line"/>
      <point x="163" y="1434" type="line"/>
      <point x="163" y="0" type="line"/>
    </contour>
    <contour>
      <point x="785" y="717" type="move" name="center"/>
    </contour>
    <contour>
      <point x="785" y="0" type="move" name="bottom"/>
    </contour>
    <contour>
      <point x="785" y="1384" type="move" name="top"/>
    </contour>
  </outline>
</glyph>
<glyph name="I" format="1">
  <advance width="649"/>
  <unicode hex="0049"/>
  <outline>
    <contour>
      <point x="481" y="0" type="line"/>
      <point x="481" y="1434" type="line"/>
      <point x="169" y="1434" type="line"/>
      <point x="169" y="0" type="line"/>
    </contour>
    <contour>
      <point x="398" y="10" type="move" name="ogonek"/>
    </contour>
    <contour>
      <point x="325" y="0" type="move" name="bottom"/>
    </contour>
    <contour>
      <point x="325" y="1384" type="move" name="top"/>
    </contour>
  </outline>
</glyph>
<glyph name="J" format="1">
  <advance width="912"/>
  <unicode hex="004A"/>
  <outline>
    <contour>
      <point x="469" y="-469"/>
      <point x="762" y="-358"/>
      <point x="762" y="-20" type="curve" smooth="yes"/>
      <point x="762" y="1434" type="line"/>
      <point x="453" y="1434" type="line"/>
      <point x="453" y="1434"/>
      <point x="453" y="111"/>
      <point x="453" y="111" type="curve"/>
      <point x="453" y="-134"/>
      <point x="289" y="-170"/>
      <point x="49" y="-192" type="curve"/>
      <point x="90" y="-482" type="line"/>
    </contour>
    <contour>
      <point x="456" y="1434" type="move" name="top"/>
    </contour>
    <contour>
      <point x="456" y="0" type="move" name="bottom"/>
    </contour>
  </outline>
</glyph>
<glyph name="K" format="1">
  <advance width="1329"/>
  <unicode hex="004B"/>
  <outline>
    <contour>
      <point x="1321" y="1459" type="line"/>
      <point x="976" y="1484" type="line"/>
      <point x="559" y="966" type="line" smooth="yes"/>
      <point x="513" y="909"/>
      <point x="487" y="865"/>
      <point x="460" y="786" type="curve"/>
      <point x="461" y="419" type="line"/>
    </contour>
    <contour>
      <point x="478" y="0" type="line"/>
      <point x="478" y="1434" type="line" smooth="yes"/>
      <point x="164" y="1434" type="line"/>
      <point x="164" y="0" type="line"/>
    </contour>
    <contour>
      <point x="1341" y="0" type="line"/>
      <point x="853" y="925" type="line"/>
      <point x="600" y="759" type="line"/>
      <point x="970" y="0" type="line"/>
    </contour>
    <contour>
      <point x="665" y="1434" type="move" name="top"/>
    </contour>
    <contour>
      <point x="665" y="0" type="move" name="bottom"/>
    </contour>
  </outline>
</glyph>
<glyph name="L" format="1">
  <advance width="1047"/>
  <unicode hex="004C"/>
  <outline>
    <contour>
      <point x="1018" y="0" type="line"/>
      <point x="1018" y="292" type="line"/>
      <point x="478" y="292" type="line"/>
      <point x="478" y="1434" type="line"/>
      <point x="164" y="1434" type="line"/>
      <point x="164" y="0" type="line"/>
    </contour>
    <contour>
      <point x="534" y="717" type="move" name="center"/>
    </contour>
    <contour>
      <point x="324" y="1384" type="move" name="top"/>
    </contour>
    <contour>
      <point x="1027" y="1434" type="move" name="topright"/>
    </contour>
    <contour>
      <point x="524" y="0" type="move" name="bottom"/>
    </contour>
  </outline>
</glyph>
<glyph name="M" format="1">
  <advance width="1960"/>
  <unicode hex="004D"/>
  <outline>
    <contour>
      <point x="445" y="0" type="line"/>
      <point x="445" y="832" type="line" smooth="yes"/>
      <point x="445" y="932"/>
      <point x="445" y="1111"/>
      <point x="440" y="1164" type="curve"/>
      <point x="444" y="1164" type="line"/>
      <point x="454" y="1099"/>
      <point x="464" y="1047"/>
      <point x="473" y="1023" type="curve" smooth="yes"/>
      <point x="837" y="0" type="line"/>
      <point x="1102" y="0" type="line"/>
      <point x="1459" y="1024" type="line" smooth="yes"/>
      <point x="1476" y="1074"/>
      <point x="1483" y="1113"/>
      <point x="1493" y="1173" type="curve"/>
      <point x="1497" y="1173" type="line"/>
      <point x="1496" y="1050"/>
      <point x="1496" y="933"/>
      <point x="1496" y="833" type="curve" smooth="yes"/>
      <point x="1496" y="0" type="line"/>
      <point x="1799" y="0" type="line"/>
      <point x="1799" y="1434" type="line"/>
      <point x="1317" y="1434" type="line"/>
      <point x="1051" y="663" type="line"/>
      <point x="1029" y="576"/>
      <point x="1007" y="488"/>
      <point x="985" y="401" type="curve"/>
      <point x="979" y="401" type="line"/>
      <point x="956" y="488"/>
      <point x="933" y="574"/>
      <point x="910" y="661" type="curve"/>
      <point x="657" y="1434" type="line"/>
      <point x="165" y="1434" type="line"/>
      <point x="165" y="0" type="line"/>
    </contour>
    <contour>
      <point x="980" y="1434" type="move" name="top"/>
    </contour>
    <contour>
      <point x="980" y="0" type="move" name="bottom"/>
    </contour>
  </outline>
</glyph>
<glyph name="N" format="1">
  <advance width="1618"/>
  <unicode hex="004E"/>
  <outline>
    <contour>
      <point x="459" y="0" type="line"/>
      <point x="459" y="787" type="line" smooth="yes"/>
      <point x="459" y="851"/>
      <point x="457" y="974"/>
      <point x="451" y="1005" type="curve"/>
      <point x="457" y="1005" type="line"/>
      <point x="468" y="976"/>
      <point x="493" y="919"/>
      <point x="509" y="895" type="curve" smooth="yes"/>
      <point x="1110" y="0" type="line"/>
      <point x="1454" y="0" type="line"/>
      <point x="1453" y="1434" type="line"/>
      <point x="1159" y="1434" type="line"/>
      <point x="1159" y="684" type="line" smooth="yes"/>
      <point x="1159" y="611"/>
      <point x="1163" y="506"/>
      <point x="1170" y="454" type="curve"/>
      <point x="1166" y="454" type="line"/>
      <point x="1159" y="470"/>
      <point x="1124" y="543"/>
      <point x="1105" y="570" type="curve" smooth="yes"/>
      <point x="521" y="1435" type="line"/>
      <point x="164" y="1435" type="line"/>
      <point x="164" y="0" type="line"/>
    </contour>
    <contour>
      <point x="809" y="1384" type="move" name="top"/>
    </contour>
    <contour>
      <point x="809" y="0" type="move" name="bottom"/>
    </contour>
  </outline>
</glyph>
<glyph name="O" format="1">
  <advance width="1553"/>
  <unicode hex="004F"/>
  <outline>
    <contour>
      <point x="1198" y="-25"/>
      <point x="1479" y="268"/>
      <point x="1479" y="712" type="curve"/>
      <point x="1482" y="1161"/>
      <point x="1201" y="1457"/>
      <point x="772" y="1457" type="curve" smooth="yes"/>
      <point x="351" y="1457"/>
      <point x="74" y="1161"/>
      <point x="74" y="712" type="curve" smooth="yes"/>
      <point x="74" y="268"/>
      <point x="351" y="-25"/>
      <point x="772" y="-25" type="curve" smooth="yes"/>
    </contour>
    <contour>
      <point x="555" y="245"/>
      <point x="410" y="430"/>
      <point x="410" y="712" type="curve" smooth="yes"/>
      <point x="410" y="998"/>
      <point x="555" y="1186"/>
      <point x="774" y="1186" type="curve" smooth="yes"/>
      <point x="997" y="1186"/>
      <point x="1144" y="998"/>
      <point x="1144" y="712" type="curve"/>
      <point x="1145" y="430"/>
      <point x="998" y="245"/>
      <point x="774" y="245" type="curve" smooth="yes"/>
    </contour>
    <contour>
      <point x="779" y="717" type="move" name="center"/>
    </contour>
    <contour>
      <point x="779" y="1384" type="move" name="top"/>
    </contour>
    <contour>
      <point x="1535" y="1434" type="move" name="topright"/>
    </contour>
    <contour>
      <point x="779" y="0" type="move" name="bottom"/>
    </contour>
  </outline>
</glyph>
<glyph name="P" format="1">
  <advance width="1258"/>
  <unicode hex="0050"/>
  <outline>
    <contour>
      <point x="477" y="0" type="line"/>
      <point x="477" y="494" type="line"/>
      <point x="684" y="494" type="line" smooth="yes"/>
      <point x="991" y="494"/>
      <point x="1212" y="670"/>
      <point x="1212" y="959" type="curve" smooth="yes"/>
      <point x="1212" y="1270"/>
      <point x="1020" y="1434"/>
      <point x="713" y="1434" type="curve" smooth="yes"/>
      <point x="164" y="1434" type="line"/>
      <point x="164" y="0" type="line"/>
    </contour>
    <contour>
      <point x="476" y="1186" type="line"/>
      <point x="694" y="1187" type="line" smooth="yes"/>
      <point x="811" y="1187"/>
      <point x="880" y="1118"/>
      <point x="880" y="951" type="curve" smooth="yes"/>
      <point x="880" y="808"/>
      <point x="799" y="739"/>
      <point x="672" y="739" type="curve" smooth="yes"/>
      <point x="476" y="739" type="line"/>
    </contour>
    <contour>
      <point x="629" y="1434" type="move" name="top"/>
    </contour>
    <contour>
      <point x="629" y="0" type="move" name="bottom"/>
    </contour>
  </outline>
</glyph>
<glyph name="Q" format="1">
  <advance width="1553"/>
  <unicode hex="0051"/>
  <outline>
    <contour>
      <point x="1537" y="-123" type="line"/>
      <point x="1376" y="-71"/>
      <point x="1241" y="43"/>
      <point x="1167" y="190" type="curve"/>
      <point x="932" y="20" type="line"/>
      <point x="1036" y="-175"/>
      <point x="1205" y="-318"/>
      <point x="1396" y="-371" type="curve"/>
    </contour>
    <component base="O"/>
    <contour>
      <point x="777" y="1434" type="move" name="top"/>
    </contour>
    <contour>
      <point x="777" y="0" type="move" name="bottom"/>
    </contour>
  </outline>
</glyph>
<glyph name="R" format="1">
  <advance width="1337"/>
  <unicode hex="0052"/>
  <outline>
    <contour>
      <point x="479" y="0" type="line"/>
      <point x="479" y="612" type="line"/>
      <point x="687" y="612" type="line" smooth="yes"/>
      <point x="972" y="612"/>
      <point x="1197" y="763"/>
      <point x="1198" y="1011" type="curve" smooth="yes"/>
      <point x="1199" y="1287"/>
      <point x="1007" y="1434"/>
      <point x="726" y="1434" type="curve" smooth="yes"/>
      <point x="164" y="1434" type="line"/>
      <point x="164" y="0" type="line"/>
    </contour>
    <contour>
      <point x="1367" y="0" type="line"/>
      <point x="878" y="751" type="line"/>
      <point x="606" y="617" type="line"/>
      <point x="1000" y="0" type="line"/>
    </contour>
    <contour>
      <point x="478" y="1201" type="line"/>
      <point x="625" y="1202" type="line" smooth="yes"/>
      <point x="780" y="1206"/>
      <point x="870" y="1131"/>
      <point x="871" y="993" type="curve" smooth="yes"/>
      <point x="872" y="860"/>
      <point x="774" y="783"/>
      <point x="603" y="783" type="curve" smooth="yes"/>
      <point x="478" y="783" type="line"/>
    </contour>
    <contour>
      <point x="639" y="1374" type="move" name="top"/>
    </contour>
    <contour>
      <point x="669" y="0" type="move" name="bottom"/>
    </contour>
  </outline>
</glyph>
<glyph name="S" format="1">
  <advance width="1148"/>
  <unicode hex="0053"/>
  <outline>
    <contour>
      <point x="890" y="-20"/>
      <point x="1079" y="154"/>
      <point x="1080" y="434" type="curve" smooth="yes"/>
      <point x="1082" y="908"/>
      <point x="453" y="843"/>
      <point x="456" y="1030" type="curve" smooth="yes"/>
      <point x="457" y="1137"/>
      <point x="568" y="1172"/>
      <point x="662" y="1172" type="curve" smooth="yes"/>
      <point x="793" y="1172"/>
      <point x="867" y="1137"/>
      <point x="933" y="1113" type="curve"/>
      <point x="1028" y="1380" type="line"/>
      <point x="918" y="1425"/>
      <point x="797" y="1457"/>
      <point x="649" y="1457" type="curve" smooth="yes"/>
      <point x="383" y="1457"/>
      <point x="117" y="1327"/>
      <point x="116" y="1010" type="curve" smooth="yes"/>
      <point x="114" y="565"/>
      <point x="781" y="621"/>
      <point x="781" y="426" type="curve" smooth="yes"/>
      <point x="781" y="341"/>
      <point x="720" y="274"/>
      <point x="551" y="274" type="curve" smooth="yes"/>
      <point x="436" y="274"/>
      <point x="347" y="297"/>
      <point x="185" y="377" type="curve"/>
      <point x="80" y="98" type="line"/>
      <point x="263" y="14"/>
      <point x="395" y="-22"/>
      <point x="561" y="-21" type="curve" smooth="yes"/>
    </contour>
    <contour>
      <point x="579" y="1384" type="move" name="top"/>
    </contour>
    <contour>
      <point x="574" y="0" type="move" name="bottom"/>
    </contour>
  </outline>
</glyph>
<glyph name="T" format="1">
  <advance width="1200"/>
  <unicode hex="0054"/>
  <outline>
    <contour>
      <point x="757" y="0" type="line"/>
      <point x="757" y="1176" type="line"/>
      <point x="1171" y="1176" type="line"/>
      <point x="1171" y="1434" type="line"/>
      <point x="31" y="1434" type="line"/>
      <point x="31" y="1176" type="line"/>
      <point x="444" y="1176" type="line"/>
      <point x="444" y="0" type="line"/>
    </contour>
    <contour>
      <point x="600" y="717" type="move" name="center"/>
    </contour>
    <contour>
      <point x="603" y="0" type="move" name="bottom"/>
    </contour>
    <contour>
      <point x="600" y="1384" type="move" name="top"/>
    </contour>
  </outline>
</glyph>
<glyph name="U" format="1">
  <advance width="1481"/>
  <unicode hex="0055"/>
  <outline>
    <contour>
      <point x="1148" y="-24"/>
      <point x="1333" y="192"/>
      <point x="1333" y="580" type="curve" smooth="yes"/>
      <point x="1333" y="1434" type="line"/>
      <point x="1020" y="1434" type="line"/>
      <point x="1020" y="563" type="line" smooth="yes"/>
      <point x="1020" y="373"/>
      <point x="942" y="256"/>
      <point x="749" y="256" type="curve" smooth="yes"/>
      <point x="546" y="256"/>
      <point x="461" y="377"/>
      <point x="461" y="578" type="curve" smooth="yes"/>
      <point x="461" y="1434" type="line"/>
      <point x="147" y="1434" type="line"/>
      <point x="147" y="557" type="line" smooth="yes"/>
      <point x="147" y="188"/>
      <point x="326" y="-24"/>
      <point x="732" y="-24" type="curve" smooth="yes"/>
    </contour>
    <contour>
      <point x="833" y="10" type="move" name="ogonek"/>
    </contour>
    <contour>
      <point x="741" y="1384" type="move" name="top"/>
    </contour>
    <contour>
      <point x="1461" y="1434" type="move" name="topright"/>
    </contour>
    <contour>
      <point x="741" y="0" type="move" name="bottom"/>
    </contour>
  </outline>
</glyph>
<glyph name="V" format="1">
  <advance width="1366"/>
  <unicode hex="0056"/>
  <outline>
    <contour>
      <point x="863" y="-1" type="line"/>
      <point x="1360" y="1433" type="line"/>
      <point x="1031" y="1434" type="line"/>
      <point x="719" y="427" type="line" smooth="yes"/>
      <point x="705" y="383"/>
      <point x="691" y="340"/>
      <point x="685" y="297" type="curve"/>
      <point x="681" y="297" type="line"/>
      <point x="676" y="339"/>
      <point x="662" y="387"/>
      <point x="651" y="424" type="curve" smooth="yes"/>
      <point x="350" y="1433" type="line"/>
      <point x="10" y="1433" type="line"/>
      <point x="501" y="-1" type="line"/>
    </contour>
    <contour>
      <point x="683" y="1384" type="move" name="top"/>
    </contour>
    <contour>
      <point x="683" y="0" type="move" name="bottom"/>
    </contour>
  </outline>
</glyph>
<glyph name="W" format="1">
  <advance width="2058"/>
  <unicode hex="0057"/>
  <outline>
    <contour>
      <point x="758" y="0" type="line"/>
      <point x="1017" y="945" type="line" smooth="yes"/>
      <point x="1029" y="989"/>
      <point x="1039" y="1043"/>
      <point x="1043" y="1089" type="curve"/>
      <point x="1047" y="1089" type="line"/>
      <point x="1049" y="1045"/>
      <point x="1060" y="983"/>
      <point x="1070" y="943" type="curve" smooth="yes"/>
      <point x="1314" y="0" type="line"/>
      <point x="1661" y="0" type="line"/>
      <point x="2040" y="1434" type="line"/>
      <point x="1724" y="1434" type="line"/>
      <point x="1521" y="475" type="line" smooth="yes"/>
      <point x="1512" y="432"/>
      <point x="1496" y="370"/>
      <point x="1494" y="337" type="curve"/>
      <point x="1490" y="337" type="line"/>
      <point x="1485" y="384"/>
      <point x="1476" y="430"/>
      <point x="1466" y="471" type="curve" smooth="yes"/>
      <point x="1224" y="1434" type="line"/>
      <point x="897" y="1434" type="line"/>
      <point x="628" y="479" type="line" smooth="yes"/>
      <point x="616" y="436"/>
      <point x="600" y="369"/>
      <point x="596" y="335" type="curve"/>
      <point x="591" y="335" type="line"/>
      <point x="589" y="378"/>
      <point x="576" y="439"/>
      <point x="567" y="479" type="curve" smooth="yes"/>
      <point x="361" y="1434" type="line"/>
      <point x="18" y="1434" type="line"/>
      <point x="395" y="0" type="line"/>
    </contour>
    <contour>
      <point x="1049" y="1384" type="move" name="top"/>
    </contour>
    <contour>
      <point x="1029" y="0" type="move" name="bottom"/>
    </contour>
  </outline>
</glyph>
<glyph name="X" format="1">
  <advance width="1342"/>
  <unicode hex="0058"/>
  <outline>
    <contour>
      <point x="382" y="0" type="line"/>
      <point x="642" y="483" type="line"/>
      <point x="650" y="499"/>
      <point x="674" y="547"/>
      <point x="677" y="554" type="curve"/>
      <point x="681" y="554" type="line"/>
      <point x="689" y="533"/>
      <point x="708" y="496"/>
      <point x="715" y="482" type="curve" smooth="yes"/>
      <point x="963" y="0" type="line"/>
      <point x="1337" y="0" type="line"/>
      <point x="894" y="723" type="line"/>
      <point x="1313" y="1434" type="line"/>
      <point x="961" y="1434" type="line"/>
      <point x="733" y="1012" type="line" smooth="yes"/>
      <point x="714" y="977"/>
      <point x="695" y="933"/>
      <point x="677" y="898" type="curve"/>
      <point x="673" y="898" type="line"/>
      <point x="662" y="924"/>
      <point x="635" y="975"/>
      <point x="623" y="1000" type="curve" smooth="yes"/>
      <point x="418" y="1434" type="line"/>
      <point x="34" y="1435" type="line"/>
      <point x="465" y="723" type="line"/>
      <point x="6" y="0" type="line"/>
    </contour>
    <contour>
      <point x="671" y="1434" type="move" name="top"/>
    </contour>
    <contour>
      <point x="671" y="0" type="move" name="bottom"/>
    </contour>
  </outline>
</glyph>
<glyph name="Y" format="1">
  <advance width="1243"/>
  <unicode hex="0059"/>
  <outline>
    <contour>
      <point x="774" y="0" type="line"/>
      <point x="774" y="490" type="line"/>
      <point x="1245" y="1434" type="line"/>
      <point x="888" y="1434" type="line"/>
      <point x="663" y="911" type="line" smooth="yes"/>
      <point x="650" y="880"/>
      <point x="632" y="829"/>
      <point x="626" y="803" type="curve"/>
      <point x="623" y="803" type="line"/>
      <point x="613" y="836"/>
      <point x="592" y="901"/>
      <point x="588" y="911" type="curve" smooth="yes"/>
      <point x="375" y="1434" type="line"/>
      <point x="0" y="1434" type="line"/>
      <point x="460" y="486" type="line"/>
      <point x="460" y="0" type="line"/>
    </contour>
    <contour>
      <point x="622" y="1384" type="move" name="top"/>
    </contour>
    <contour>
      <point x="622" y="0" type="move" name="bottom"/>
    </contour>
  </outline>
</glyph>
<glyph name="bracketleft" format="1">
  <advance width="756"/>
  <unicode hex="005B"/>
  <outline>
    <contour>
      <point x="686" y="-326" type="line"/>
      <point x="686" y="-125" type="line"/>
      <point x="477" y="-125" type="line"/>
      <point x="477" y="1233" type="line"/>
      <point x="686" y="1233" type="line"/>
      <point x="686" y="1434" type="line"/>
      <point x="217" y="1434" type="line"/>
      <point x="217" y="-326" type="line"/>
    </contour>
  </outline>
</glyph>
<glyph name="backslash" format="1">
  <advance width="893"/>
  <unicode hex="005C"/>
  <outline>
    <contour>
      <point x="920" y="-154" type="line"/>
      <point x="251" y="1520" type="line"/>
      <point x="-9" y="1438" type="line"/>
      <point x="664" y="-236" type="line"/>
    </contour>
  </outline>
</glyph>
<glyph name="asciicircum" format="1">
  <advance width="1448"/>
  <unicode hex="005E"/>
  <outline>
    <contour>
      <point x="464" y="610" type="line"/>
      <point x="715" y="1156" type="line"/>
      <point x="719" y="1156" type="line"/>
      <point x="986" y="610" type="line"/>
      <point x="1249" y="610" type="line"/>
      <point x="795" y="1458" type="line"/>
      <point x="633" y="1458" type="line"/>
      <point x="203" y="610" type="line"/>
    </contour>
  </outline>
</glyph>
<glyph name="grave" format="1">
  <advance width="643"/>
  <unicode hex="0060"/>
  <outline>
    <contour>
      <point x="616" y="1186" type="line"/>
      <point x="466" y="1539" type="line"/>
      <point x="165" y="1539" type="line"/>
      <point x="349" y="1186" type="line"/>
    </contour>
  </outline>
</glyph>
<glyph name="a" format="1">
  <advance width="1102"/>
  <unicode hex="0061"/>
  <outline>
    <contour>
      <point x="1057" y="28" type="line"/>
      <point x="1017" y="122"/>
      <point x="991" y="223"/>
      <point x="990" y="330" type="curve"/>
      <point x="988" y="618" type="line" smooth="yes"/>
      <point x="986" y="872"/>
      <point x="828" y="1000"/>
      <point x="527" y="1000" type="curve" smooth="yes"/>
      <point x="444" y="1000"/>
      <point x="325" y="982"/>
      <point x="149" y="954" type="curve"/>
      <point x="177" y="710" type="line"/>
      <point x="298" y="738"/>
      <point x="450" y="754"/>
      <point x="514" y="754" type="curve" smooth="yes"/>
      <point x="624" y="754"/>
      <point x="686" y="710"/>
      <point x="686" y="604" type="curve"/>
      <point x="686" y="328" type="line" smooth="yes"/>
      <point x="686" y="198"/>
      <point x="720" y="75"/>
      <point x="772" y="-39" type="curve"/>
    </contour>
    <contour>
      <point x="566" y="-23"/>
      <point x="717" y="101"/>
      <point x="717" y="226" type="curve"/>
      <point x="686" y="369" type="line"/>
      <point x="686" y="279"/>
      <point x="606" y="200"/>
      <point x="485" y="200" type="curve"/>
      <point x="407" y="200"/>
      <point x="353" y="231"/>
      <point x="353" y="275" type="curve" smooth="yes"/>
      <point x="352" y="339"/>
      <point x="411" y="377"/>
      <point x="508" y="377" type="curve" smooth="yes"/>
      <point x="617" y="377"/>
      <point x="725" y="357"/>
      <point x="793" y="328" type="curve"/>
      <point x="790" y="498" type="line"/>
      <point x="690" y="568"/>
      <point x="584" y="603"/>
      <point x="483" y="603" type="curve" smooth="yes"/>
      <point x="221" y="603"/>
      <point x="56" y="476"/>
      <point x="56" y="266" type="curve" smooth="yes"/>
      <point x="56" y="64"/>
      <point x="218" y="-23"/>
      <point x="418" y="-23" type="curve"/>
    </contour>
    <contour>
      <point x="992" y="10" type="move" name="ogonek"/>
    </contour>
    <contour>
      <point x="551" y="0" type="move" name="bottom"/>
    </contour>
    <contour>
      <point x="551" y="974" type="move" name="top"/>
    </contour>
  </outline>
</glyph>
<glyph name="b" format="1">
  <advance width="1270"/>
  <unicode hex="0062"/>
  <outline>
    <contour>
      <point x="1033" y="-23"/>
      <point x="1198" y="186"/>
      <point x="1198" y="509" type="curve" smooth="yes"/>
      <point x="1198" y="803"/>
      <point x="1022" y="1000"/>
      <point x="746" y="1000" type="curve"/>
      <point x="581" y="1000"/>
      <point x="454" y="893"/>
      <point x="419" y="820" type="curve"/>
      <point x="416" y="633" type="line"/>
      <point x="475" y="710"/>
      <point x="553" y="755"/>
      <point x="649" y="756" type="curve" smooth="yes"/>
      <point x="791" y="757"/>
      <point x="873" y="668"/>
      <point x="873" y="511" type="curve" smooth="yes"/>
      <point x="873" y="326"/>
      <point x="802" y="220"/>
      <point x="677" y="220" type="curve" smooth="yes"/>
      <point x="533" y="220"/>
      <point x="450" y="325"/>
      <point x="450" y="508" type="curve"/>
      <point x="449" y="618" type="line"/>
      <point x="430" y="397" type="line"/>
      <point x="427" y="233"/>
      <point x="428" y="-23"/>
      <point x="715" y="-23" type="curve" smooth="yes"/>
    </contour>
    <contour>
      <point x="405" y="0" type="line"/>
      <point x="454" y="152" type="line"/>
      <point x="449" y="231" type="line"/>
      <point x="449" y="1516" type="line"/>
      <point x="133" y="1516" type="line"/>
      <point x="135" y="0" type="line"/>
    </contour>
    <contour>
      <point x="635" y="974" type="move" name="top"/>
    </contour>
    <contour>
      <point x="635" y="0" type="move" name="bottom"/>
    </contour>
  </outline>
</glyph>
<glyph name="d" format="1">
  <advance width="1268"/>
  <unicode hex="0064"/>
  <outline>
    <contour>
      <point x="769" y="-23"/>
      <point x="885" y="124"/>
      <point x="885" y="400" type="curve"/>
      <point x="825" y="493" type="line"/>
      <point x="825" y="324"/>
      <point x="740" y="224"/>
      <point x="577" y="224" type="curve" smooth="yes"/>
      <point x="461" y="224"/>
      <point x="395" y="318"/>
      <point x="395" y="483" type="curve" smooth="yes"/>
      <point x="395" y="656"/>
      <point x="471" y="755"/>
      <point x="604" y="755" type="curve" smooth="yes"/>
      <point x="725" y="755"/>
      <point x="837" y="706"/>
      <point x="912" y="621" type="curve"/>
      <point x="929" y="849" type="line"/>
      <point x="825" y="949"/>
      <point x="713" y="999"/>
      <point x="591" y="999" type="curve" smooth="yes"/>
      <point x="278" y="999"/>
      <point x="72" y="788"/>
      <point x="72" y="472" type="curve" smooth="yes"/>
      <point x="72" y="173"/>
      <point x="217" y="-23"/>
      <point x="537" y="-23" type="curve"/>
    </contour>
    <contour>
      <point x="1232" y="38" type="line"/>
      <point x="1177" y="151"/>
      <point x="1135" y="229"/>
      <point x="1135" y="450" type="curve"/>
      <point x="826" y="328" type="line"/>
      <point x="826" y="198"/>
      <point x="860" y="75"/>
      <point x="912" y="-39" type="curve"/>
    </contour>
    <contour>
      <point x="1135" y="1517" type="line"/>
      <point x="826" y="1517" type="line"/>
      <point x="826" y="328" type="line"/>
      <point x="1135" y="211" type="line"/>
    </contour>
    <contour>
      <point x="634" y="487" type="move" name="center"/>
    </contour>
    <contour>
      <point x="634" y="974" type="move" name="top"/>
    </contour>
    <contour>
      <point x="1248" y="974" type="move" name="topright"/>
    </contour>
    <contour>
      <point x="634" y="0" type="move" name="bottom"/>
    </contour>
  </outline>
</glyph>
<glyph name="h" format="1">
  <advance width="1233"/>
  <unicode hex="0068"/>
  <outline>
    <contour>
      <point x="1116" y="0" type="line"/>
      <point x="1116" y="610" type="line"/>
      <point x="1116" y="833"/>
      <point x="993" y="1000"/>
      <point x="737" y="1000" type="curve"/>
      <point x="579" y="1000"/>
      <point x="461" y="938"/>
      <point x="380" y="814" type="curve"/>
      <point x="370" y="581" type="line" smooth="yes"/>
      <point x="425" y="690"/>
      <point x="514" y="753"/>
      <point x="616" y="753" type="curve"/>
      <point x="758" y="753"/>
      <point x="802" y="644"/>
      <point x="802" y="524" type="curve"/>
      <point x="802" y="0" type="line"/>
    </contour>
    <contour>
      <point x="449" y="0" type="line"/>
      <point x="449" y="1517" type="line"/>
      <point x="133" y="1517" type="line"/>
      <point x="133" y="0" type="line"/>
    </contour>
    <contour>
      <point x="617" y="487" type="move" name="center"/>
    </contour>
    <contour>
      <point x="617" y="0" type="move" name="bottom"/>
    </contour>
    <contour>
      <point x="617" y="974" type="move" name="top"/>
    </contour>
  </outline>
</glyph>
<glyph name="j" format="1">
  <advance width="582"/>
  <unicode hex="006A"/>
  <outline>
    <contour>
      <point x="388" y="1189"/>
      <point x="461" y="1263"/>
      <point x="461" y="1361" type="curve" smooth="yes"/>
      <point x="461" y="1457"/>
      <point x="388" y="1531"/>
      <point x="291" y="1531" type="curve" smooth="yes"/>
      <point x="193" y="1531"/>
      <point x="120" y="1457"/>
      <point x="120" y="1361" type="curve" smooth="yes"/>
      <point x="120" y="1263"/>
      <point x="193" y="1189"/>
      <point x="291" y="1189" type="curve" smooth="yes"/>
    </contour>
    <component base="jdotless"/>
  </outline>
</glyph>
<glyph name="k" format="1">
  <advance width="1145"/>
  <unicode hex="006B"/>
  <outline>
    <contour>
      <point x="1119" y="974" type="line"/>
      <point x="804" y="1000" type="line"/>
      <point x="562" y="757" type="line" smooth="yes"/>
      <point x="468" y="663"/>
      <point x="412" y="422"/>
      <point x="392" y="369" type="curve"/>
      <point x="384" y="228" type="line"/>
      <point x="403" y="174" type="line"/>
    </contour>
    <contour>
      <point x="450" y="0" type="line"/>
      <point x="450" y="1516" type="line"/>
      <point x="133" y="1516" type="line"/>
      <point x="133" y="0" type="line"/>
    </contour>
    <contour>
      <point x="1142" y="-2" type="line"/>
      <point x="767" y="624" type="line"/>
      <point x="542" y="439" type="line"/>
      <point x="810" y="-2" type="line"/>
    </contour>
    <contour>
      <point x="573" y="974" type="move" name="top"/>
    </contour>
    <contour>
      <point x="573" y="0" type="move" name="bottom"/>
    </contour>
  </outline>
</glyph>
<glyph name="l" format="1">
  <advance width="582"/>
  <unicode hex="006C"/>
  <outline>
    <contour>
      <point x="449" y="0" type="line"/>
      <point x="449" y="1516" type="line"/>
      <point x="133" y="1516" type="line"/>
      <point x="133" y="0" type="line"/>
    </contour>
    <contour>
      <point x="291" y="487" type="move" name="center"/>
    </contour>
    <contour>
      <point x="295" y="1394" type="move" name="top"/>
    </contour>
    <contour>
      <point x="662" y="1022" type="move" name="topright"/>
    </contour>
    <contour>
      <point x="291" y="0" type="move" name="bottom"/>
    </contour>
  </outline>
</glyph>
<glyph name="m" format="1">
  <advance width="1876"/>
  <unicode hex="006D"/>
  <outline>
    <contour>
      <point x="1759" y="0" type="line"/>
      <point x="1759" y="610" type="line"/>
      <point x="1758" y="833"/>
      <point x="1635" y="1000"/>
      <point x="1380" y="1000" type="curve"/>
      <point x="1204" y="1000"/>
      <point x="1090" y="939"/>
      <point x="983" y="864" type="curve"/>
      <point x="1033" y="651" type="line"/>
      <point x="1103" y="721"/>
      <point x="1179" y="753"/>
      <point x="1289" y="753" type="curve"/>
      <point x="1413" y="753"/>
      <point x="1451" y="663"/>
      <point x="1445" y="564" type="curve"/>
      <point x="1445" y="0" type="line"/>
    </contour>
    <contour>
      <point x="449" y="0" type="line"/>
      <point x="451" y="839" type="line"/>
      <point x="408" y="974" type="line"/>
      <point x="135" y="974" type="line"/>
      <point x="133" y="0" type="line"/>
    </contour>
    <contour>
      <point x="1103" y="0" type="line"/>
      <point x="1103" y="610" type="line"/>
      <point x="1102" y="833"/>
      <point x="987" y="1000"/>
      <point x="747" y="1000" type="curve"/>
      <point x="589" y="1000"/>
      <point x="514" y="938"/>
      <point x="390" y="814" type="curve"/>
      <point x="390" y="571" type="line"/>
      <point x="472" y="697"/>
      <point x="530" y="753"/>
      <point x="636" y="753" type="curve"/>
      <point x="752" y="753"/>
      <point x="788" y="663"/>
      <point x="789" y="564" type="curve"/>
      <point x="789" y="0" type="line"/>
    </contour>
    <contour>
      <point x="938" y="974" type="move" name="top"/>
    </contour>
    <contour>
      <point x="938" y="0" type="move" name="bottom"/>
    </contour>
  </outline>
</glyph>
<glyph name="n" format="1">
  <advance width="1239"/>
  <unicode hex="006E"/>
  <outline>
    <contour>
      <point x="1116" y="0" type="line"/>
      <point x="1116" y="610" type="line"/>
      <point x="1116" y="833"/>
      <point x="993" y="1000"/>
      <point x="737" y="1000" type="curve"/>
      <point x="579" y="1000"/>
      <point x="461" y="938"/>
      <point x="380" y="814" type="curve"/>
      <point x="370" y="581" type="line" smooth="yes"/>
      <point x="425" y="690"/>
      <point x="514" y="753"/>
      <point x="616" y="753" type="curve"/>
      <point x="758" y="753"/>
      <point x="802" y="644"/>
      <point x="802" y="524" type="curve"/>
      <point x="802" y="0" type="line"/>
    </contour>
    <contour>
      <point x="449" y="0" type="line"/>
      <point x="451" y="839" type="line"/>
      <point x="408" y="974" type="line"/>
      <point x="135" y="974" type="line"/>
      <point x="133" y="0" type="line"/>
    </contour>
    <contour>
      <point x="620" y="974" type="move" name="top"/>
    </contour>
    <contour>
      <point x="620" y="0" type="move" name="bottom"/>
    </contour>
  </outline>
</glyph>
<glyph name="o" format="1">
  <advance width="1252"/>
  <unicode hex="006F"/>
  <outline>
    <contour>
      <point x="959" y="-25"/>
      <point x="1179" y="176"/>
      <point x="1179" y="482" type="curve"/>
      <point x="1182" y="793"/>
      <point x="962" y="998"/>
      <point x="624" y="998" type="curve" smooth="yes"/>
      <point x="292" y="998"/>
      <point x="73" y="793"/>
      <point x="73" y="482" type="curve" smooth="yes"/>
      <point x="73" y="176"/>
      <point x="292" y="-25"/>
      <point x="624" y="-25" type="curve" smooth="yes"/>
    </contour>
    <contour>
      <point x="479" y="233"/>
      <point x="381" y="332"/>
      <point x="382" y="482" type="curve" smooth="yes"/>
      <point x="383" y="632"/>
      <point x="481" y="730"/>
      <point x="628" y="730" type="curve" smooth="yes"/>
      <point x="769" y="730"/>
      <point x="865" y="632"/>
      <point x="870" y="482" type="curve"/>
      <point x="867" y="332"/>
      <point x="771" y="233"/>
      <point x="628" y="233" type="curve" smooth="yes"/>
    </contour>
    <contour>
      <point x="626" y="487" type="move" name="center"/>
    </contour>
    <contour>
      <point x="626" y="974" type="move" name="top"/>
    </contour>
    <contour>
      <point x="1232" y="974" type="move" name="topright"/>
    </contour>
    <contour>
      <point x="626" y="0" type="move" name="bottom"/>
    </contour>
  </outline>
</glyph>
<glyph name="q" format="1">
  <advance width="1268"/>
  <unicode hex="0071"/>
  <outline>
    <contour>
      <point x="769" y="-23"/>
      <point x="885" y="124"/>
      <point x="885" y="400" type="curve"/>
      <point x="825" y="493" type="line"/>
      <point x="825" y="324"/>
      <point x="740" y="224"/>
      <point x="577" y="224" type="curve" smooth="yes"/>
      <point x="461" y="224"/>
      <point x="395" y="318"/>
      <point x="395" y="483" type="curve" smooth="yes"/>
      <point x="395" y="657"/>
      <point x="471" y="756"/>
      <point x="604" y="756" type="curve" smooth="yes"/>
      <point x="725" y="756"/>
      <point x="837" y="707"/>
      <point x="912" y="622" type="curve"/>
      <point x="929" y="850" type="line"/>
      <point x="830" y="945"/>
      <point x="707" y="1000"/>
      <point x="591" y="1000" type="curve" smooth="yes"/>
      <point x="261" y="1000"/>
      <point x="72" y="808"/>
      <point x="72" y="472" type="curve" smooth="yes"/>
      <point x="72" y="173"/>
      <point x="217" y="-23"/>
      <point x="537" y="-23" type="curve"/>
    </contour>
    <contour>
      <point x="1135" y="-471" type="line"/>
      <point x="1135" y="975" type="line"/>
      <point x="865" y="974" type="line"/>
      <point x="825" y="804" type="line"/>
      <point x="825" y="-472" type="line"/>
    </contour>
    <contour>
      <point x="634" y="974" type="move" name="top"/>
    </contour>
    <contour>
      <point x="634" y="0" type="move" name="bottom"/>
    </contour>
  </outline>
</glyph>
<glyph name="r" format="1">
  <advance width="815"/>
  <unicode hex="0072"/>
  <outline>
    <contour>
      <point x="449" y="0" type="line"/>
      <point x="451" y="739" type="line"/>
      <point x="408" y="974" type="line"/>
      <point x="135" y="974" type="line"/>
      <point x="133" y="0" type="line"/>
    </contour>
    <contour>
      <point x="502" y="642"/>
      <point x="625" y="701"/>
      <point x="793" y="684" type="curve"/>
      <point x="821" y="990" type="line"/>
      <point x="613" y="1052"/>
      <point x="480" y="947"/>
      <point x="420" y="670" type="curve"/>
      <point x="420" y="517" type="line"/>
    </contour>
    <contour>
      <point x="458" y="974" type="move" name="top"/>
    </contour>
    <contour>
      <point x="293" y="0" type="move" name="bottom"/>
    </contour>
  </outline>
</glyph>
<glyph name="s" format="1">
  <advance width="901"/>
  <unicode hex="0073"/>
  <outline>
    <contour>
      <point x="707" y="-25"/>
      <point x="852" y="89"/>
      <point x="852" y="318" type="curve"/>
      <point x="850" y="650"/>
      <point x="404" y="576"/>
      <point x="402" y="689" type="curve"/>
      <point x="405" y="730"/>
      <point x="439" y="737"/>
      <point x="508" y="738" type="curve"/>
      <point x="588" y="738"/>
      <point x="676" y="720"/>
      <point x="771" y="683" type="curve"/>
      <point x="828" y="936" type="line"/>
      <point x="727" y="979"/>
      <point x="611" y="999"/>
      <point x="478" y="999" type="curve"/>
      <point x="225" y="999"/>
      <point x="98" y="893"/>
      <point x="96" y="679" type="curve"/>
      <point x="98" y="326"/>
      <point x="551" y="463"/>
      <point x="554" y="308" type="curve"/>
      <point x="553" y="254"/>
      <point x="508" y="227"/>
      <point x="415" y="226" type="curve"/>
      <point x="340" y="227"/>
      <point x="249" y="251"/>
      <point x="140" y="300" type="curve"/>
      <point x="66" y="53" type="line"/>
      <point x="187" y="2"/>
      <point x="303" y="-24"/>
      <point x="415" y="-25" type="curve"/>
    </contour>
    <contour>
      <point x="451" y="974" type="move" name="top"/>
    </contour>
    <contour>
      <point x="411" y="0" type="move" name="bottom"/>
    </contour>
  </outline>
</glyph>
<glyph name="t" format="1">
  <advance width="797"/>
  <unicode hex="0074"/>
  <outline>
    <contour>
      <point x="643" y="-24"/>
      <point x="709" y="-22"/>
      <point x="752" y="-18" type="curve"/>
      <point x="752" y="259" type="line"/>
      <point x="723" y="255"/>
      <point x="684" y="252"/>
      <point x="661" y="252" type="curve" smooth="yes"/>
      <point x="537" y="252"/>
      <point x="515" y="343"/>
      <point x="515" y="422" type="curve" smooth="yes"/>
      <point x="515" y="1323" type="line"/>
      <point x="208" y="1323" type="line"/>
      <point x="208" y="273" type="line" smooth="yes"/>
      <point x="208" y="84"/>
      <point x="325" y="-24"/>
      <point x="620" y="-24" type="curve" smooth="yes"/>
    </contour>
    <contour>
      <point x="41" y="741"/>
      <point x="750" y="742"/>
      <point x="750" y="742" type="curve"/>
      <point x="752" y="974" type="line"/>
      <point x="752" y="974"/>
      <point x="43" y="973"/>
      <point x="43" y="973" type="curve"/>
      <point x="41" y="741" type="line"/>
    </contour>
    <contour>
      <point x="399" y="487" type="move" name="center"/>
    </contour>
    <contour>
      <point x="369" y="1205" type="move" name="top"/>
    </contour>
    <contour>
      <point x="747" y="884" type="move" name="topright"/>
    </contour>
    <contour>
      <point x="399" y="0" type="move" name="bottom"/>
    </contour>
  </outline>
</glyph>
<glyph name="u" format="1">
  <advance width="1239"/>
  <unicode hex="0075"/>
  <outline>
    <contour>
      <point x="739" y="-22"/>
      <point x="827" y="116"/>
      <point x="827" y="159" type="curve"/>
      <point x="797" y="452" type="line"/>
      <point x="797" y="316"/>
      <point x="717" y="210"/>
      <point x="609" y="210" type="curve"/>
      <point x="459" y="210"/>
      <point x="433" y="314"/>
      <point x="433" y="419" type="curve"/>
      <point x="433" y="973" type="line"/>
      <point x="117" y="973" type="line"/>
      <point x="117" y="368" type="line"/>
      <point x="117" y="175"/>
      <point x="209" y="-22"/>
      <point x="513" y="-22" type="curve"/>
    </contour>
    <contour>
      <point x="1203" y="38" type="line"/>
      <point x="1148" y="151"/>
      <point x="1106" y="229"/>
      <point x="1106" y="450" type="curve"/>
      <point x="797" y="328" type="line"/>
      <point x="797" y="198"/>
      <point x="831" y="75"/>
      <point x="883" y="-39" type="curve"/>
    </contour>
    <contour>
      <point x="1106" y="974" type="line"/>
      <point x="797" y="974" type="line"/>
      <point x="797" y="328" type="line"/>
      <point x="1106" y="211" type="line"/>
    </contour>
    <contour>
      <point x="1115" y="10" type="move" name="ogonek"/>
    </contour>
    <contour>
      <point x="620" y="974" type="move" name="top"/>
    </contour>
    <contour>
      <point x="1219" y="974" type="move" name="topright"/>
    </contour>
    <contour>
      <point x="620" y="0" type="move" name="bottom"/>
    </contour>
  </outline>
</glyph>
<glyph name="v" format="1">
  <advance width="1110"/>
  <unicode hex="0076"/>
  <outline>
    <contour>
      <point x="726" y="-5" type="line"/>
      <point x="1108" y="974" type="line"/>
      <point x="780" y="974" type="line"/>
      <point x="591" y="361" type="line" smooth="yes"/>
      <point x="585" y="340"/>
      <point x="564" y="237"/>
      <point x="561" y="211" type="curve"/>
      <point x="557" y="211" type="line"/>
      <point x="555" y="232"/>
      <point x="533" y="338"/>
      <point x="525" y="365" type="curve" smooth="yes"/>
      <point x="341" y="974" type="line"/>
      <point x="4" y="974" type="line"/>
      <point x="365" y="-5" type="line"/>
    </contour>
    <contour>
      <point x="555" y="974" type="move" name="top"/>
    </contour>
    <contour>
      <point x="555" y="0" type="move" name="bottom"/>
    </contour>
  </outline>
</glyph>
<glyph name="w" format="1">
  <advance width="1633"/>
  <unicode hex="0077"/>
  <outline>
    <contour>
      <point x="633" y="-5" type="line"/>
      <point x="800" y="574" type="line" smooth="yes"/>
      <point x="805" y="593"/>
      <point x="815" y="671"/>
      <point x="816" y="683" type="curve"/>
      <point x="820" y="683" type="line"/>
      <point x="821" y="671"/>
      <point x="828" y="593"/>
      <point x="833" y="573" type="curve" smooth="yes"/>
      <point x="989" y="-5" type="line"/>
      <point x="1321" y="-5" type="line"/>
      <point x="1616" y="975" type="line"/>
      <point x="1323" y="974" type="line"/>
      <point x="1187" y="337" type="line" smooth="yes"/>
      <point x="1183" y="320"/>
      <point x="1176" y="250"/>
      <point x="1175" y="237" type="curve"/>
      <point x="1167" y="237" type="line"/>
      <point x="1166" y="256"/>
      <point x="1157" y="327"/>
      <point x="1154" y="339" type="curve" smooth="yes"/>
      <point x="996" y="974" type="line"/>
      <point x="696" y="974" type="line"/>
      <point x="518" y="357" type="line" smooth="yes"/>
      <point x="513" y="340"/>
      <point x="501" y="253"/>
      <point x="500" y="238" type="curve"/>
      <point x="492" y="238" type="line"/>
      <point x="491" y="257"/>
      <point x="481" y="341"/>
      <point x="479" y="352" type="curve" smooth="yes"/>
      <point x="338" y="974" type="line"/>
      <point x="16" y="974" type="line"/>
      <point x="306" y="-5" type="line"/>
    </contour>
    <contour>
      <point x="817" y="974" type="move" name="top"/>
    </contour>
    <contour>
      <point x="817" y="0" type="move" name="bottom"/>
    </contour>
  </outline>
</glyph>
<glyph name="x" format="1">
  <advance width="1131"/>
  <unicode hex="0078"/>
  <outline>
    <contour>
      <point x="365" y="0" type="line"/>
      <point x="567" y="300" type="line"/>
      <point x="571" y="300" type="line"/>
      <point x="778" y="0" type="line"/>
      <point x="1126" y="0" type="line"/>
      <point x="748" y="506" type="line"/>
      <point x="1122" y="974" type="line"/>
      <point x="786" y="974" type="line"/>
      <point x="580" y="674" type="line"/>
      <point x="576" y="674" type="line"/>
      <point x="376" y="974" type="line"/>
      <point x="42" y="974" type="line"/>
      <point x="406" y="492" type="line"/>
      <point x="17" y="0" type="line"/>
    </contour>
    <contour>
      <point x="566" y="974" type="move" name="top"/>
    </contour>
    <contour>
      <point x="566" y="0" type="move" name="bottom"/>
    </contour>
  </outline>
</glyph>
<glyph name="y" format="1">
  <advance width="1102"/>
  <unicode hex="0079"/>
  <outline>
    <contour>
      <point x="306" y="-450"/>
      <point x="504" y="-431"/>
      <point x="653" y="-138" type="curve" smooth="yes"/>
      <point x="1108" y="976" type="line"/>
      <point x="793" y="974" type="line"/>
      <point x="587" y="384" type="line"/>
      <point x="567" y="308" type="line"/>
      <point x="561" y="308" type="line"/>
      <point x="541" y="386" type="line"/>
      <point x="347" y="974" type="line"/>
      <point x="-4" y="974" type="line"/>
      <point x="407" y="5" type="line"/>
      <point x="389" y="-42" type="line" smooth="yes"/>
      <point x="326" y="-136"/>
      <point x="242" y="-178"/>
      <point x="73" y="-199" type="curve"/>
      <point x="110" y="-482" type="line"/>
    </contour>
    <contour>
      <point x="551" y="974" type="move" name="top"/>
    </contour>
    <contour>
      <point x="551" y="0" type="move" name="bottom"/>
    </contour>
  </outline>
</glyph>
<glyph name="z" format="1">
  <advance width="981"/>
  <unicode hex="007A"/>
  <outline>
    <contour>
      <point x="944" y="0" type="line"/>
      <point x="944" y="230" type="line"/>
      <point x="482" y="230" type="line"/>
      <point x="942" y="927" type="line"/>
      <point x="942" y="974" type="line"/>
      <point x="80" y="974" type="line"/>
      <point x="80" y="725" type="line"/>
      <point x="521" y="725" type="line"/>
      <point x="33" y="51" type="line"/>
      <point x="33" y="0" type="line"/>
    </contour>
    <contour>
      <point x="501" y="974" type="move" name="top"/>
    </contour>
    <contour>
      <point x="491" y="0" type="move" name="bottom"/>
    </contour>
  </outline>
</glyph>
<glyph name="braceleft" format="1">
  <advance width="756"/>
  <unicode hex="007B"/>
  <outline>
    <contour>
      <point x="672" y="-139" type="line"/>
      <point x="559" y="-139"/>
      <point x="512" y="-90"/>
      <point x="512" y="41" type="curve" smooth="yes"/>
      <point x="512" y="246" type="line" smooth="yes"/>
      <point x="512" y="409"/>
      <point x="461" y="512"/>
      <point x="358" y="553" type="curve"/>
      <point x="358" y="557" type="line"/>
      <point x="461" y="599"/>
      <point x="512" y="700"/>
      <point x="512" y="860" type="curve" smooth="yes"/>
      <point x="512" y="1073" type="line" smooth="yes"/>
      <point x="512" y="1189"/>
      <point x="565" y="1247"/>
      <point x="672" y="1247" type="curve"/>
      <point x="672" y="1434" type="line"/>
      <point x="379" y="1434"/>
      <point x="256" y="1336"/>
      <point x="256" y="1061" type="curve" smooth="yes"/>
      <point x="256" y="838" type="line" smooth="yes"/>
      <point x="256" y="711"/>
      <point x="205" y="647"/>
      <point x="104" y="647" type="curve"/>
      <point x="104" y="463" type="line"/>
      <point x="205" y="463"/>
      <point x="256" y="402"/>
      <point x="256" y="279" type="curve" smooth="yes"/>
      <point x="256" y="39" type="line" smooth="yes"/>
      <point x="256" y="-234"/>
      <point x="381" y="-326"/>
      <point x="672" y="-326" type="curve"/>
    </contour>
  </outline>
</glyph>
<glyph name="cent" format="1">
  <advance width="1178"/>
  <unicode hex="00A2"/>
  <outline>
    <contour>
      <point x="823" y="845" type="line"/>
      <point x="823" y="1260" type="line"/>
      <point x="572" y="1258" type="line"/>
      <point x="572" y="845" type="line"/>
    </contour>
    <contour>
      <point x="823" y="-198" type="line"/>
      <point x="823" y="158" type="line"/>
      <point x="572" y="158" type="line"/>
      <point x="572" y="-200" type="line"/>
    </contour>
    <component base="c" xOffset="95"/>
  </outline>
</glyph>
<glyph name="sterling" format="1">
  <advance width="1178"/>
  <unicode hex="00A3"/>
  <outline>
    <contour>
      <point x="560" y="262"/>
      <point x="624" y="429"/>
      <point x="624" y="539" type="curve" smooth="yes"/>
      <point x="624" y="1011" type="line"/>
      <point x="624" y="1145"/>
      <point x="656" y="1216"/>
      <point x="810" y="1216" type="curve" smooth="yes"/>
      <point x="853" y="1216"/>
      <point x="906" y="1207"/>
      <point x="971" y="1184" type="curve"/>
      <point x="987" y="1419" type="line"/>
      <point x="914" y="1446"/>
      <point x="853" y="1454"/>
      <point x="797" y="1454" type="curve" smooth="yes"/>
      <point x="422" y="1454"/>
      <point x="330" y="1251"/>
      <point x="330" y="1001" type="curve"/>
      <point x="330" y="529" type="line" smooth="yes"/>
      <point x="330" y="441"/>
      <point x="309" y="283"/>
      <point x="148" y="236" type="curve"/>
      <point x="374" y="160" type="line"/>
    </contour>
    <contour>
      <point x="996" y="0" type="line"/>
      <point x="996" y="236" type="line"/>
      <point x="148" y="236" type="line"/>
      <point x="148" y="0" type="line"/>
    </contour>
    <contour>
      <point x="169" y="608"/>
      <point x="819" y="608"/>
      <point x="819" y="608" type="curve"/>
      <point x="819" y="828" type="line"/>
      <point x="169" y="826" type="line"/>
      <point x="169" y="608" type="line"/>
    </contour>
  </outline>
</glyph>
<glyph name="currency" format="1">
  <advance width="1139"/>
  <unicode hex="00A4"/>
  <outline>
    <contour>
      <point x="336" y="190" type="line"/>
      <point x="407" y="147"/>
      <point x="484" y="125"/>
      <point x="569" y="125" type="curve" smooth="yes"/>
      <point x="655" y="125"/>
      <point x="733" y="147"/>
      <point x="803" y="190" type="curve"/>
      <point x="946" y="49" type="line"/>
      <point x="1087" y="194" type="line"/>
      <point x="946" y="332" type="line"/>
      <point x="991" y="408"/>
      <point x="1014" y="484"/>
      <point x="1014" y="561" type="curve" smooth="yes"/>
      <point x="1014" y="640"/>
      <point x="991" y="716"/>
      <point x="946" y="790" type="curve"/>
      <point x="1087" y="930" type="line"/>
      <point x="946" y="1075" type="line"/>
      <point x="803" y="934" type="line"/>
      <point x="733" y="977"/>
      <point x="655" y="999"/>
      <point x="569" y="999" type="curve" smooth="yes"/>
      <point x="484" y="999"/>
      <point x="407" y="977"/>
      <point x="336" y="934" type="curve"/>
      <point x="193" y="1075" type="line"/>
      <point x="51" y="930" type="line"/>
      <point x="193" y="790" type="line"/>
      <point x="149" y="718"/>
      <point x="127" y="642"/>
      <point x="127" y="561" type="curve" smooth="yes"/>
      <point x="127" y="482"/>
      <point x="149" y="405"/>
      <point x="193" y="332" type="curve"/>
      <point x="51" y="194" type="line"/>
      <point x="193" y="49" type="line"/>
    </contour>
    <contour>
      <point x="444" y="345"/>
      <point x="350" y="439"/>
      <point x="350" y="563" type="curve" smooth="yes"/>
      <point x="350" y="687"/>
      <point x="444" y="781"/>
      <point x="569" y="781" type="curve" smooth="yes"/>
      <point x="696" y="781"/>
      <point x="791" y="687"/>
      <point x="791" y="563" type="curve" smooth="yes"/>
      <point x="791" y="439"/>
      <point x="696" y="345"/>
      <point x="569" y="345" type="curve" smooth="yes"/>
    </contour>
  </outline>
</glyph>
<glyph name="yen" format="1">
  <advance width="1178"/>
  <unicode hex="00A5"/>
  <outline>
    <contour>
      <point x="764" y="0" type="line"/>
      <point x="764" y="530" type="line"/>
      <point x="1155" y="1434" type="line"/>
      <point x="818" y="1434" type="line"/>
      <point x="653" y="951" type="line" smooth="yes"/>
      <point x="642" y="919"/>
      <point x="622" y="869"/>
      <point x="616" y="843" type="curve"/>
      <point x="613" y="843" type="line"/>
      <point x="603" y="876"/>
      <point x="582" y="941"/>
      <point x="578" y="951" type="curve" smooth="yes"/>
      <point x="395" y="1434" type="line"/>
      <point x="40" y="1434" type="line"/>
      <point x="450" y="526" type="line"/>
      <point x="450" y="0" type="line"/>
    </contour>
    <contour>
      <point x="1057" y="173" type="line"/>
      <point x="1057" y="373" type="line"/>
      <point x="131" y="373" type="line"/>
      <point x="131" y="173" type="line"/>
    </contour>
    <contour>
      <point x="1057" y="488" type="line"/>
      <point x="1057" y="688" type="line"/>
      <point x="131" y="688" type="line"/>
      <point x="131" y="488" type="line"/>
    </contour>
  </outline>
</glyph>
<glyph name="brokenbar" format="1">
  <advance width="668"/>
  <unicode hex="00A6"/>
  <outline>
    <contour>
      <point x="471" y="-481" type="line"/>
      <point x="471" y="414" type="line"/>
      <point x="199" y="414" type="line"/>
      <point x="199" y="-481" type="line"/>
    </contour>
    <contour>
      <point x="471" y="684" type="line"/>
      <point x="471" y="1567" type="line"/>
      <point x="199" y="1567" type="line"/>
      <point x="199" y="684" type="line"/>
    </contour>
  </outline>
</glyph>
<glyph name="section" format="1">
  <advance width="994"/>
  <unicode hex="00A7"/>
  <outline>
    <contour>
      <point x="724" y="-90"/>
      <point x="867" y="24"/>
      <point x="866" y="253" type="curve" smooth="yes"/>
      <point x="864" y="592"/>
      <point x="338" y="505"/>
      <point x="336" y="712" type="curve" smooth="yes"/>
      <point x="335" y="785"/>
      <point x="395" y="823"/>
      <point x="512" y="826" type="curve"/>
      <point x="502" y="1017" type="line"/>
      <point x="250" y="1017"/>
      <point x="123" y="898"/>
      <point x="120" y="657" type="curve" smooth="yes"/>
      <point x="122" y="300"/>
      <point x="575" y="396"/>
      <point x="578" y="243" type="curve" smooth="yes"/>
      <point x="579" y="176"/>
      <point x="530" y="142"/>
      <point x="439" y="141" type="curve" smooth="yes"/>
      <point x="365" y="142"/>
      <point x="274" y="166"/>
      <point x="164" y="215" type="curve"/>
      <point x="90" y="-12" type="line"/>
      <point x="209" y="-63"/>
      <point x="325" y="-89"/>
      <point x="439" y="-90" type="curve" smooth="yes"/>
    </contour>
    <contour>
      <point x="812" y="470"/>
      <point x="872" y="569"/>
      <point x="871" y="716" type="curve" smooth="yes"/>
      <point x="869" y="1057"/>
      <point x="413" y="1004"/>
      <point x="411" y="1150" type="curve" smooth="yes"/>
      <point x="413" y="1215"/>
      <point x="448" y="1248"/>
      <point x="517" y="1249" type="curve" smooth="yes"/>
      <point x="601" y="1249"/>
      <point x="688" y="1229"/>
      <point x="780" y="1188" type="curve"/>
      <point x="837" y="1427" type="line"/>
      <point x="738" y="1469"/>
      <point x="622" y="1490"/>
      <point x="487" y="1490" type="curve" smooth="yes"/>
      <point x="241" y="1490"/>
      <point x="114" y="1384"/>
      <point x="115" y="1170" type="curve" smooth="yes"/>
      <point x="117" y="827"/>
      <point x="649" y="891"/>
      <point x="653" y="676" type="curve" smooth="yes"/>
      <point x="655" y="570"/>
      <point x="577" y="517"/>
      <point x="434" y="514" type="curve"/>
      <point x="695" y="413" type="line"/>
    </contour>
  </outline>
</glyph>
<glyph name="dieresis" format="1">
  <advance width="946"/>
  <unicode hex="00A8"/>
  <outline>
    <contour>
      <point x="347" y="1172"/>
      <point x="408" y="1227"/>
      <point x="408" y="1323" type="curve" smooth="yes"/>
      <point x="408" y="1419"/>
      <point x="347" y="1474"/>
      <point x="240" y="1474" type="curve" smooth="yes"/>
      <point x="133" y="1474"/>
      <point x="71" y="1419"/>
      <point x="71" y="1323" type="curve" smooth="yes"/>
      <point x="71" y="1227"/>
      <point x="133" y="1172"/>
      <point x="240" y="1172" type="curve" smooth="yes"/>
    </contour>
    <contour>
      <point x="805" y="1172"/>
      <point x="867" y="1227"/>
      <point x="867" y="1323" type="curve" smooth="yes"/>
      <point x="867" y="1419"/>
      <point x="805" y="1474"/>
      <point x="698" y="1474" type="curve" smooth="yes"/>
      <point x="591" y="1474"/>
      <point x="530" y="1419"/>
      <point x="530" y="1323" type="curve" smooth="yes"/>
      <point x="530" y="1227"/>
      <point x="591" y="1172"/>
      <point x="698" y="1172" type="curve" smooth="yes"/>
    </contour>
  </outline>
</glyph>
<glyph name="copyright" format="1">
  <advance width="1790"/>
  <unicode hex="00A9"/>
  <outline>
    <contour>
      <point x="1326" y="-25"/>
      <point x="1661" y="294"/>
      <point x="1661" y="717" type="curve" smooth="yes"/>
      <point x="1661" y="1149"/>
      <point x="1338" y="1458"/>
      <point x="901" y="1458" type="curve" smooth="yes"/>
      <point x="462" y="1458"/>
      <point x="131" y="1136"/>
      <point x="131" y="713" type="curve" smooth="yes"/>
      <point x="131" y="281"/>
      <point x="449" y="-25"/>
      <point x="893" y="-25" type="curve" smooth="yes"/>
    </contour>
    <contour>
      <point x="577" y="158"/>
      <point x="334" y="394"/>
      <point x="334" y="717" type="curve" smooth="yes"/>
      <point x="334" y="1036"/>
      <point x="571" y="1276"/>
      <point x="897" y="1276" type="curve" smooth="yes"/>
      <point x="1218" y="1276"/>
      <point x="1458" y="1038"/>
      <point x="1458" y="715" type="curve" smooth="yes"/>
      <point x="1458" y="398"/>
      <point x="1211" y="158"/>
      <point x="897" y="158" type="curve" smooth="yes"/>
    </contour>
    <component base="c" xOffset="457" yOffset="348" xScale="0.751" yScale="0.751"/>
  </outline>
</glyph>
<glyph name="guillemetleft" format="1">
  <advance width="1190"/>
  <unicode hex="00AB"/>
  <outline>
    <contour>
      <point x="1139" y="151" type="line"/>
      <point x="805" y="487" type="line"/>
      <point x="1139" y="831" type="line"/>
      <point x="831" y="831" type="line"/>
      <point x="501" y="487" type="line"/>
      <point x="831" y="151" type="line"/>
    </contour>
    <contour>
      <point x="671" y="151" type="line"/>
      <point x="337" y="487" type="line"/>
      <point x="671" y="831" type="line"/>
      <point x="363" y="831" type="line"/>
      <point x="33" y="487" type="line"/>
      <point x="363" y="151" type="line"/>
    </contour>
  </outline>
</glyph>
<glyph name="logicalnot" format="1">
  <advance width="1448"/>
  <unicode hex="00AC"/>
  <outline>
    <contour>
      <point x="1212" y="246" type="line"/>
      <point x="1212" y="858" type="line"/>
      <point x="238" y="858" type="line"/>
      <point x="238" y="565" type="line"/>
      <point x="920" y="565" type="line"/>
      <point x="920" y="246" type="line"/>
    </contour>
  </outline>
</glyph>
<glyph name="registered" format="1">
  <advance width="1790"/>
  <unicode hex="00AE"/>
  <outline>
    <contour>
      <point x="1326" y="-25"/>
      <point x="1661" y="294"/>
      <point x="1661" y="717" type="curve" smooth="yes"/>
      <point x="1661" y="1149"/>
      <point x="1338" y="1458"/>
      <point x="901" y="1458" type="curve" smooth="yes"/>
      <point x="462" y="1458"/>
      <point x="131" y="1136"/>
      <point x="131" y="713" type="curve" smooth="yes"/>
      <point x="131" y="281"/>
      <point x="449" y="-25"/>
      <point x="893" y="-25" type="curve" smooth="yes"/>
    </contour>
    <contour>
      <point x="577" y="158"/>
      <point x="334" y="394"/>
      <point x="334" y="717" type="curve" smooth="yes"/>
      <point x="334" y="1036"/>
      <point x="571" y="1276"/>
      <point x="897" y="1276" type="curve" smooth="yes"/>
      <point x="1218" y="1276"/>
      <point x="1458" y="1038"/>
      <point x="1458" y="715" type="curve" smooth="yes"/>
      <point x="1458" y="398"/>
      <point x="1211" y="158"/>
      <point x="897" y="158" type="curve" smooth="yes"/>
    </contour>
    <contour>
      <point x="1251" y="359" type="line"/>
      <point x="1015" y="751" type="line"/>
      <point x="829" y="687" type="line"/>
      <point x="1019" y="359" type="line"/>
    </contour>
    <contour>
      <point x="838" y="359" type="line"/>
      <point x="838" y="664" type="line"/>
      <point x="953" y="664" type="line" smooth="yes"/>
      <point x="1091" y="664"/>
      <point x="1199" y="745"/>
      <point x="1200" y="877" type="curve" smooth="yes"/>
      <point x="1200" y="1023"/>
      <point x="1108" y="1101"/>
      <point x="972" y="1101" type="curve" smooth="yes"/>
      <point x="631" y="1101" type="line"/>
      <point x="631" y="359" type="line"/>
    </contour>
    <contour>
      <point x="837" y="943" type="line"/>
      <point x="903" y="944" type="line" smooth="yes"/>
      <point x="944" y="945"/>
      <point x="967" y="923"/>
      <point x="967" y="858" type="curve" smooth="yes"/>
      <point x="968" y="805"/>
      <point x="941" y="791"/>
      <point x="893" y="791" type="curve" smooth="yes"/>
      <point x="837" y="791" type="line"/>
    </contour>
  </outline>
</glyph>
<glyph name="degree" format="1">
  <advance width="778"/>
  <unicode hex="00B0"/>
  <outline>
    <contour>
      <point x="561" y="895"/>
      <point x="684" y="1017"/>
      <point x="684" y="1178" type="curve" smooth="yes"/>
      <point x="684" y="1338"/>
      <point x="561" y="1458"/>
      <point x="399" y="1458" type="curve" smooth="yes"/>
      <point x="237" y="1458"/>
      <point x="115" y="1338"/>
      <point x="115" y="1178" type="curve" smooth="yes"/>
      <point x="115" y="1017"/>
      <point x="237" y="895"/>
      <point x="399" y="895" type="curve" smooth="yes"/>
    </contour>
    <contour>
      <point x="331" y="1057"/>
      <point x="280" y="1109"/>
      <point x="280" y="1178" type="curve" smooth="yes"/>
      <point x="280" y="1246"/>
      <point x="331" y="1297"/>
      <point x="399" y="1297" type="curve" smooth="yes"/>
      <point x="467" y="1297"/>
      <point x="518" y="1246"/>
      <point x="518" y="1178" type="curve" smooth="yes"/>
      <point x="518" y="1109"/>
      <point x="467" y="1057"/>
      <point x="399" y="1057" type="curve" smooth="yes"/>
    </contour>
  </outline>
</glyph>
<glyph name="plusminus" format="1">
  <advance width="1448"/>
  <unicode hex="00B1"/>
  <outline>
    <contour>
      <point x="1230" y="0" type="line"/>
      <point x="1230" y="263" type="line"/>
      <point x="218" y="263" type="line"/>
      <point x="218" y="0" type="line"/>
    </contour>
    <component base="plus" yOffset="219"/>
  </outline>
</glyph>
<glyph name="twosuperior" format="1">
  <advance width="828"/>
  <unicode hex="00B2"/>
  <outline>
    <contour>
      <point x="763" y="885" type="line"/>
      <point x="763" y="1132" type="line"/>
      <point x="504" y="1132" type="line"/>
      <point x="576" y="1203"/>
      <point x="708" y="1319"/>
      <point x="708" y="1474" type="curve" smooth="yes"/>
      <point x="708" y="1877"/>
      <point x="207" y="1735"/>
      <point x="107" y="1719" type="curve"/>
      <point x="133" y="1480" type="line"/>
      <point x="206" y="1509"/>
      <point x="410" y="1560"/>
      <point x="410" y="1389" type="curve" smooth="yes"/>
      <point x="410" y="1227"/>
      <point x="98" y="1168"/>
      <point x="98" y="946" type="curve"/>
      <point x="98" y="885" type="line"/>
    </contour>
  </outline>
</glyph>
<glyph name="threesuperior" format="1">
  <advance width="828"/>
  <unicode hex="00B3"/>
  <outline>
    <contour>
      <point x="572" y="863"/>
      <point x="715" y="960"/>
      <point x="715" y="1106" type="curve" smooth="yes"/>
      <point x="715" y="1222"/>
      <point x="651" y="1294"/>
      <point x="523" y="1324" type="curve"/>
      <point x="523" y="1328" type="line"/>
      <point x="631" y="1365"/>
      <point x="686" y="1440"/>
      <point x="686" y="1553" type="curve" smooth="yes"/>
      <point x="686" y="1674"/>
      <point x="576" y="1754"/>
      <point x="397" y="1754" type="curve" smooth="yes"/>
      <point x="304" y="1754"/>
      <point x="224" y="1742"/>
      <point x="158" y="1717" type="curve"/>
      <point x="188" y="1511" type="line"/>
      <point x="240" y="1528"/>
      <point x="296" y="1536"/>
      <point x="356" y="1536" type="curve" smooth="yes"/>
      <point x="402" y="1536"/>
      <point x="425" y="1516"/>
      <point x="425" y="1476" type="curve" smooth="yes"/>
      <point x="425" y="1425"/>
      <point x="365" y="1400"/>
      <point x="246" y="1400" type="curve"/>
      <point x="250" y="1214" type="line"/>
      <point x="374" y="1214"/>
      <point x="442" y="1190"/>
      <point x="442" y="1141" type="curve" smooth="yes"/>
      <point x="442" y="1100"/>
      <point x="409" y="1079"/>
      <point x="342" y="1079" type="curve" smooth="yes"/>
      <point x="280" y="1079"/>
      <point x="219" y="1088"/>
      <point x="161" y="1107" type="curve"/>
      <point x="131" y="896" type="line"/>
      <point x="195" y="874"/>
      <point x="271" y="863"/>
      <point x="360" y="863" type="curve" smooth="yes"/>
    </contour>
  </outline>
</glyph>
<glyph name="acute" format="1">
  <advance width="621"/>
  <unicode hex="00B4"/>
  <outline>
    <contour>
      <point x="293" y="1186" type="line"/>
      <point x="576" y="1509" type="line"/>
      <point x="265" y="1509" type="line"/>
      <point x="35" y="1186" type="line"/>
    </contour>
  </outline>
</glyph>
<glyph name="micro" format="1">
  <advance width="1255"/>
  <unicode hex="00B5"/>
  <outline>
    <contour>
      <point x="131" y="-396" type="line"/>
      <point x="446" y="-396" type="line"/>
      <point x="446" y="792" type="line"/>
      <point x="131" y="792" type="line"/>
    </contour>
    <component base="u" xOffset="14"/>
  </outline>
</glyph>
<glyph name="paragraph" format="1">
  <advance width="1043"/>
  <unicode hex="00B6"/>
  <outline>
    <contour>
      <point x="602" y="0" type="line"/>
      <point x="602" y="1272" type="line"/>
      <point x="700" y="1272" type="line"/>
      <point x="700" y="0" type="line"/>
      <point x="879" y="0" type="line"/>
      <point x="879" y="1272" type="line"/>
      <point x="966" y="1272" type="line"/>
      <point x="966" y="1434" type="line"/>
      <point x="389" y="1434" type="line" smooth="yes"/>
      <point x="187" y="1434"/>
      <point x="72" y="1315"/>
      <point x="72" y="1108" type="curve" smooth="yes"/>
      <point x="72" y="912"/>
      <point x="195" y="794"/>
      <point x="410" y="786" type="curve"/>
      <point x="410" y="0" type="line"/>
    </contour>
  </outline>
</glyph>
<glyph name="cedilla" format="1">
  <advance width="441"/>
  <unicode hex="00B8"/>
  <outline>
    <contour>
      <point x="351" y="-455"/>
      <point x="457" y="-386"/>
      <point x="457" y="-248" type="curve" smooth="yes"/>
      <point x="457" y="-143"/>
      <point x="397" y="-87"/>
      <point x="275" y="-82" type="curve"/>
      <point x="275" y="60" type="line"/>
      <point x="98" y="60" type="line"/>
      <point x="98" y="-182" type="line"/>
      <point x="114" y="-181"/>
      <point x="126" y="-180"/>
      <point x="135" y="-180" type="curve" smooth="yes"/>
      <point x="209" y="-180"/>
      <point x="246" y="-202"/>
      <point x="246" y="-246" type="curve" smooth="yes"/>
      <point x="246" y="-295"/>
      <point x="205" y="-319"/>
      <point x="123" y="-319" type="curve" smooth="yes"/>
      <point x="98" y="-319"/>
      <point x="74" y="-317"/>
      <point x="51" y="-313" type="curve"/>
      <point x="51" y="-451" type="line"/>
      <point x="79" y="-454"/>
      <point x="108" y="-455"/>
      <point x="139" y="-455" type="curve" smooth="yes"/>
    </contour>
  </outline>
</glyph>
<glyph name="onesuperior" format="1">
  <advance width="807"/>
  <unicode hex="00B9"/>
  <outline>
    <contour>
      <point x="615" y="883" type="line"/>
      <point x="614" y="1746" type="line"/>
      <point x="459" y="1746" type="line"/>
      <point x="45" y="1600" type="line"/>
      <point x="101" y="1357" type="line"/>
      <point x="343" y="1433" type="line"/>
      <point x="343" y="883" type="line"/>
    </contour>
  </outline>
</glyph>
<glyph name="guillemetright" format="1">
  <advance width="1190"/>
  <unicode hex="00BB"/>
  <outline>
    <contour>
      <point x="691" y="487" type="line"/>
      <point x="361" y="831" type="line"/>
      <point x="53" y="831" type="line"/>
      <point x="387" y="487" type="line"/>
      <point x="53" y="151" type="line"/>
      <point x="361" y="151" type="line"/>
    </contour>
    <contour>
      <point x="1169" y="487" type="line"/>
      <point x="839" y="831" type="line"/>
      <point x="531" y="831" type="line"/>
      <point x="865" y="487" type="line"/>
      <point x="531" y="151" type="line"/>
      <point x="839" y="151" type="line"/>
    </contour>
  </outline>
</glyph>
<glyph name="AE" format="1">
  <advance width="1915"/>
  <unicode hex="00C6"/>
  <outline>
    <contour>
      <point x="336" y="0" type="line"/>
      <point x="989" y="1181" type="line"/>
      <point x="1231" y="1181" type="line"/>
      <point x="1151" y="1434" type="line"/>
      <point x="829" y="1434" type="line"/>
      <point x="-2" y="0" type="line"/>
    </contour>
    <contour>
      <point x="1168" y="290" type="line"/>
      <point x="1168" y="526" type="line"/>
      <point x="346" y="526" type="line"/>
      <point x="346" y="290" type="line"/>
    </contour>
    <component base="E" xOffset="825"/>
  </outline>
</glyph>
<glyph name="multiply" format="1">
  <advance width="1448"/>
  <unicode hex="00D7"/>
  <outline>
    <contour>
      <point x="727" y="414" type="line"/>
      <point x="1065" y="84" type="line"/>
      <point x="1230" y="248" type="line"/>
      <point x="890" y="586" type="line"/>
      <point x="1228" y="920" type="line"/>
      <point x="1069" y="1091" type="line"/>
      <point x="727" y="751" type="line"/>
      <point x="383" y="1091" type="line"/>
      <point x="222" y="926" type="line"/>
      <point x="562" y="586" type="line"/>
      <point x="222" y="250" type="line"/>
      <point x="387" y="84" type="line"/>
    </contour>
  </outline>
</glyph>
<glyph name="Oslash" format="1">
  <advance width="1553"/>
  <unicode hex="00D8"/>
  <outline>
    <contour>
      <point x="1448" y="1386" type="line"/>
      <point x="1323" y="1489" type="line"/>
      <point x="80" y="43" type="line"/>
      <point x="205" y="-61" type="line"/>
    </contour>
    <component base="O"/>
  </outline>
</glyph>
<glyph name="Thorn" format="1">
  <advance width="1258"/>
  <unicode hex="00DE"/>
  <outline>
    <contour>
      <point x="477" y="0" type="line"/>
      <point x="477" y="273" type="line"/>
      <point x="674" y="273" type="line" smooth="yes"/>
      <point x="987" y="273"/>
      <point x="1212" y="449"/>
      <point x="1212" y="738" type="curve" smooth="yes"/>
      <point x="1212" y="1049"/>
      <point x="1020" y="1213"/>
      <point x="713" y="1213" type="curve" smooth="yes"/>
      <point x="164" y="1213" type="line"/>
      <point x="164" y="0" type="line"/>
    </contour>
    <contour>
      <point x="476" y="965" type="line"/>
      <point x="684" y="966" type="line" smooth="yes"/>
      <point x="807" y="966"/>
      <point x="880" y="897"/>
      <point x="880" y="730" type="curve" smooth="yes"/>
      <point x="880" y="587"/>
      <point x="795" y="518"/>
      <point x="662" y="518" type="curve" smooth="yes"/>
      <point x="476" y="518" type="line"/>
    </contour>
    <contour>
      <point x="476" y="800" type="line"/>
      <point x="476" y="1434" type="line"/>
      <point x="165" y="1434" type="line"/>
      <point x="165" y="800" type="line"/>
    </contour>
    <contour>
      <point x="629" y="1434" type="move" name="top"/>
    </contour>
    <contour>
      <point x="629" y="0" type="move" name="bottom"/>
    </contour>
  </outline>
</glyph>
<glyph name="germandbls" format="1">
  <advance width="1286"/>
  <unicode hex="00DF"/>
  <outline>
    <contour>
      <point x="833" y="896"/>
      <point x="1123" y="808"/>
      <point x="1123" y="1188" type="curve" smooth="yes"/>
      <point x="1123" y="1395"/>
      <point x="930" y="1532"/>
      <point x="638" y="1532" type="curve" smooth="yes"/>
      <point x="334" y="1532"/>
      <point x="133" y="1367"/>
      <point x="133" y="1116" type="curve" smooth="yes"/>
      <point x="133" y="2" type="line"/>
      <point x="439" y="2" type="line"/>
      <point x="439" y="1092" type="line" smooth="yes"/>
      <point x="439" y="1210"/>
      <point x="522" y="1288"/>
      <point x="649" y="1288" type="curve" smooth="yes"/>
      <point x="756" y="1288"/>
      <point x="827" y="1251"/>
      <point x="827" y="1194" type="curve" smooth="yes"/>
      <point x="827" y="975"/>
      <point x="535" y="1038"/>
      <point x="535" y="758" type="curve" smooth="yes"/>
      <point x="535" y="404"/>
      <point x="949" y="448"/>
      <point x="950" y="313" type="curve" smooth="yes"/>
      <point x="950" y="259"/>
      <point x="895" y="232"/>
      <point x="783" y="232" type="curve" smooth="yes"/>
      <point x="736" y="232"/>
      <point x="649" y="248"/>
      <point x="582" y="269" type="curve"/>
      <point x="530" y="15" type="line"/>
      <point x="665" y="-11"/>
      <point x="782" y="-24"/>
      <point x="883" y="-25" type="curve" smooth="yes"/>
      <point x="1101" y="-25"/>
      <point x="1227" y="102"/>
      <point x="1227" y="323" type="curve"/>
      <point x="1225" y="719"/>
      <point x="832" y="616"/>
      <point x="830" y="754" type="curve"/>
    </contour>
  </outline>
</glyph>
<glyph name="ae" format="1">
  <advance width="1696"/>
  <unicode hex="00E6"/>
  <outline>
    <contour>
      <point x="595" y="-23"/>
      <point x="776" y="101"/>
      <point x="776" y="226" type="curve"/>
      <point x="745" y="369" type="line"/>
      <point x="745" y="279"/>
      <point x="641" y="200"/>
      <point x="484" y="200" type="curve"/>
      <point x="406" y="200"/>
      <point x="352" y="231"/>
      <point x="352" y="275" type="curve" smooth="yes"/>
      <point x="351" y="339"/>
      <point x="410" y="377"/>
      <point x="507" y="377" type="curve" smooth="yes"/>
      <point x="616" y="377"/>
      <point x="724" y="357"/>
      <point x="792" y="328" type="curve"/>
      <point x="789" y="468" type="line"/>
      <point x="689" y="538"/>
      <point x="583" y="573"/>
      <point x="482" y="573" type="curve" smooth="yes"/>
      <point x="220" y="573"/>
      <point x="55" y="457"/>
      <point x="55" y="266" type="curve" smooth="yes"/>
      <point x="55" y="64"/>
      <point x="217" y="-23"/>
      <point x="417" y="-23" type="curve"/>
    </contour>
    <contour>
      <point x="988" y="434" type="line"/>
      <point x="987" y="618" type="line" smooth="yes"/>
      <point x="985" y="872"/>
      <point x="827" y="1000"/>
      <point x="526" y="1000" type="curve" smooth="yes"/>
      <point x="443" y="1000"/>
      <point x="324" y="982"/>
      <point x="148" y="954" type="curve"/>
      <point x="176" y="690" type="line"/>
      <point x="297" y="718"/>
      <point x="449" y="734"/>
      <point x="513" y="734" type="curve" smooth="yes"/>
      <point x="623" y="734"/>
      <point x="685" y="696"/>
      <point x="685" y="604" type="curve"/>
      <point x="685" y="434" type="line"/>
    </contour>
    <component base="e" xOffset="612"/>
    <contour>
      <point x="-107" y="10" type="move" name="ogonek"/>
    </contour>
    <contour>
      <point x="862" y="0" type="move" name="bottom"/>
    </contour>
    <contour>
      <point x="862" y="974" type="move" name="top"/>
    </contour>
  </outline>
</glyph>
<glyph name="eth" format="1">
  <advance width="1215"/>
  <unicode hex="00F0"/>
  <outline>
    <contour>
      <point x="925" y="-25"/>
      <point x="1143" y="216"/>
      <point x="1143" y="563" type="curve" smooth="yes"/>
      <point x="1143" y="868"/>
      <point x="1023" y="1117"/>
      <point x="782" y="1311" type="curve"/>
      <point x="997" y="1415" type="line"/>
      <point x="920" y="1552" type="line"/>
      <point x="647" y="1419" type="line"/>
      <point x="567" y="1480"/>
      <point x="485" y="1545"/>
      <point x="478" y="1549" type="curve"/>
      <point x="285" y="1434" type="line"/>
      <point x="318" y="1409"/>
      <point x="396" y="1347"/>
      <point x="434" y="1317" type="curve"/>
      <point x="193" y="1202" type="line"/>
      <point x="274" y="1061" type="line"/>
      <point x="565" y="1204" type="line"/>
      <point x="639" y="1144"/>
      <point x="704" y="1065"/>
      <point x="760" y="967" type="curve"/>
      <point x="756" y="965" type="line"/>
      <point x="697" y="1015"/>
      <point x="629" y="1040"/>
      <point x="551" y="1040" type="curve" smooth="yes"/>
      <point x="266" y="1040"/>
      <point x="72" y="822"/>
      <point x="72" y="514" type="curve" smooth="yes"/>
      <point x="72" y="181"/>
      <point x="267" y="-25"/>
      <point x="598" y="-25" type="curve" smooth="yes"/>
    </contour>
    <contour>
      <point x="473" y="217"/>
      <point x="393" y="327"/>
      <point x="393" y="514" type="curve" smooth="yes"/>
      <point x="393" y="695"/>
      <point x="475" y="807"/>
      <point x="612" y="807" type="curve" smooth="yes"/>
      <point x="751" y="807"/>
      <point x="821" y="711"/>
      <point x="821" y="520" type="curve" smooth="yes"/>
      <point x="821" y="333"/>
      <point x="739" y="217"/>
      <point x="608" y="217" type="curve" smooth="yes"/>
    </contour>
  </outline>
</glyph>
<glyph name="divide" format="1">
  <advance width="1448"/>
  <unicode hex="00F7"/>
  <outline>
    <contour>
      <point x="1212" y="455" type="line"/>
      <point x="1212" y="718" type="line"/>
      <point x="238" y="718" type="line"/>
      <point x="238" y="455" type="line"/>
    </contour>
    <contour>
      <point x="811" y="33"/>
      <point x="878" y="95"/>
      <point x="878" y="184" type="curve" smooth="yes"/>
      <point x="878" y="276"/>
      <point x="818" y="342"/>
      <point x="727" y="342" type="curve" smooth="yes"/>
      <point x="636" y="342"/>
      <point x="572" y="273"/>
      <point x="572" y="181" type="curve" smooth="yes"/>
      <point x="572" y="98"/>
      <point x="640" y="33"/>
      <point x="727" y="33" type="curve" smooth="yes"/>
    </contour>
    <contour>
      <point x="814" y="832"/>
      <point x="882" y="896"/>
      <point x="882" y="985" type="curve" smooth="yes"/>
      <point x="882" y="1077"/>
      <point x="822" y="1142"/>
      <point x="731" y="1142" type="curve" smooth="yes"/>
      <point x="640" y="1142"/>
      <point x="576" y="1074"/>
      <point x="576" y="983" type="curve" smooth="yes"/>
      <point x="576" y="899"/>
      <point x="644" y="832"/>
      <point x="731" y="832" type="curve" smooth="yes"/>
    </contour>
  </outline>
</glyph>
<glyph name="oslash" format="1">
  <advance width="1252"/>
  <unicode hex="00F8"/>
  <outline>
    <contour>
      <point x="1215" y="947" type="line"/>
      <point x="1011" y="1135" type="line"/>
      <point x="778" y="894" type="line"/>
      <point x="975" y="699" type="line"/>
    </contour>
    <contour>
      <point x="459" y="177" type="line"/>
      <point x="271" y="379" type="line"/>
      <point x="-18" y="101" type="line"/>
      <point x="181" y="-91" type="line"/>
    </contour>
    <component base="o"/>
  </outline>
</glyph>
<glyph name="thorn" format="1">
  <advance width="1270"/>
  <unicode hex="00FE"/>
  <outline>
    <contour>
      <point x="449" y="448" type="line"/>
      <point x="449" y="1434" type="line"/>
      <point x="135" y="1434" type="line"/>
      <point x="135" y="448" type="line"/>
    </contour>
    <component base="p"/>
  </outline>
</glyph>
<glyph name="Aogonek" format="1">
  <advance width="1440"/>
  <unicode hex="0104"/>
  <outline>
    <contour>
      <point x="1241" y="-419"/>
      <point x="1320" y="-412"/>
      <point x="1382" y="-400" type="curve"/>
      <point x="1352" y="-212" type="line"/>
      <point x="1331" y="-220"/>
      <point x="1308" y="-224"/>
      <point x="1290" y="-224" type="curve" smooth="yes"/>
      <point x="1231" y="-224"/>
      <point x="1197" y="-196"/>
      <point x="1197" y="-148" type="curve" smooth="yes"/>
      <point x="1197" y="-97"/>
      <point x="1280" y="-44"/>
      <point x="1425" y="0" type="curve"/>
      <point x="1080" y="0" type="line"/>
      <point x="1009" y="-58"/>
      <point x="969" y="-144"/>
      <point x="969" y="-235" type="curve" smooth="yes"/>
      <point x="969" y="-352"/>
      <point x="1041" y="-419"/>
      <point x="1166" y="-419" type="curve" smooth="yes"/>
    </contour>
    <component base="A"/>
    <contour>
      <point x="1296" y="10" type="move" name="_ogonek"/>
    </contour>
  </outline>
</glyph>
<glyph name="aogonek" format="1">
  <advance width="1102"/>
  <unicode hex="0105"/>
  <outline>
    <contour>
      <point x="960" y="-419"/>
      <point x="1006" y="-412"/>
      <point x="1044" y="-400" type="curve"/>
      <point x="1034" y="-222" type="line"/>
      <point x="1016" y="-230"/>
      <point x="993" y="-234"/>
      <point x="972" y="-234" type="curve" smooth="yes"/>
      <point x="932" y="-234"/>
      <point x="909" y="-206"/>
      <point x="909" y="-158" type="curve" smooth="yes"/>
      <point x="909" y="-104"/>
      <point x="963" y="-36"/>
      <point x="1057" y="28" type="curve"/>
      <point x="852" y="28" type="line"/>
      <point x="743" y="-44"/>
      <point x="681" y="-143"/>
      <point x="681" y="-245" type="curve" smooth="yes"/>
      <point x="681" y="-356"/>
      <point x="767" y="-419"/>
      <point x="918" y="-419" type="curve" smooth="yes"/>
    </contour>
    <component base="a"/>
  </outline>
</glyph>
<glyph name="eogonek" format="1">
  <advance width="1108"/>
  <unicode hex="0119"/>
  <outline>
    <contour>
      <point x="882" y="-419"/>
      <point x="938" y="-412"/>
      <point x="984" y="-400" type="curve"/>
      <point x="947" y="-222" type="line"/>
      <point x="930" y="-230"/>
      <point x="907" y="-234"/>
      <point x="885" y="-234" type="curve" smooth="yes"/>
      <point x="845" y="-234"/>
      <point x="822" y="-206"/>
      <point x="822" y="-158" type="curve" smooth="yes"/>
      <point x="822" y="-98"/>
      <point x="876" y="-23"/>
      <point x="970" y="48" type="curve"/>
      <point x="765" y="48" type="line"/>
      <point x="656" y="-29"/>
      <point x="594" y="-136"/>
      <point x="594" y="-245" type="curve" smooth="yes"/>
      <point x="594" y="-356"/>
      <point x="680" y="-419"/>
      <point x="831" y="-419" type="curve" smooth="yes"/>
    </contour>
    <component base="e"/>
  </outline>
</glyph>
<glyph name="idotless" format="1">
  <advance width="582"/>
  <unicode hex="0131"/>
  <outline>
    <contour>
      <point x="449" y="0" type="line"/>
      <point x="449" y="974" type="line"/>
      <point x="133" y="974" type="line"/>
      <point x="133" y="0" type="line"/>
    </contour>
    <contour>
      <point x="360" y="10" type="move" name="ogonek"/>
    </contour>
    <contour>
      <point x="291" y="0" type="move" name="bottom"/>
    </contour>
    <contour>
      <point x="291" y="974" type="move" name="top"/>
    </contour>
  </outline>
</glyph>
<glyph name="Lslash" format="1">
  <advance width="1047"/>
  <unicode hex="0141"/>
  <outline>
    <contour>
      <point x="770" y="772" type="line"/>
      <point x="770" y="1034" type="line"/>
      <point x="2" y="645" type="line"/>
      <point x="2" y="381" type="line"/>
    </contour>
    <component base="L"/>
  </outline>
</glyph>
<glyph name="lslash" format="1">
  <advance width="643"/>
  <unicode hex="0142"/>
  <outline>
    <contour>
      <point x="610" y="754" type="line"/>
      <point x="610" y="1010" type="line"/>
      <point x="29" y="647" type="line"/>
      <point x="29" y="389" type="line"/>
    </contour>
    <component base="l" xOffset="29"/>
  </outline>
</glyph>
<glyph name="Eng" format="1">
  <advance width="1618"/>
  <unicode hex="014A"/>
  <outline>
    <contour>
      <point x="469" y="0" type="line"/>
      <point x="469" y="767" type="line" smooth="yes"/>
      <point x="469" y="831"/>
      <point x="467" y="954"/>
      <point x="461" y="985" type="curve"/>
      <point x="467" y="985" type="line"/>
      <point x="478" y="956"/>
      <point x="502" y="899"/>
      <point x="519" y="875" type="curve" smooth="yes"/>
      <point x="1139" y="0" type="line"/>
      <point x="1454" y="0" type="line"/>
      <point x="1453" y="1434" type="line"/>
      <point x="1149" y="1434" type="line"/>
      <point x="1149" y="744" type="line" smooth="yes"/>
      <point x="1149" y="671"/>
      <point x="1153" y="566"/>
      <point x="1160" y="514" type="curve"/>
      <point x="1156" y="514" type="line"/>
      <point x="1149" y="530"/>
      <point x="1114" y="603"/>
      <point x="1095" y="630" type="curve" smooth="yes"/>
      <point x="521" y="1435" type="line"/>
      <point x="164" y="1435" type="line"/>
      <point x="164" y="0" type="line"/>
    </contour>
    <contour>
      <point x="1222" y="-468"/>
      <point x="1454" y="-344"/>
      <point x="1454" y="0" type="curve" smooth="yes"/>
      <point x="1454" y="124" type="line"/>
      <point x="1137" y="58" type="line"/>
      <point x="1137" y="-102"/>
      <point x="1082" y="-169"/>
      <point x="870" y="-192" type="curve"/>
      <point x="921" y="-482" type="line"/>
    </contour>
  </outline>
</glyph>
<glyph name="eng" format="1">
  <advance width="1239"/>
  <unicode hex="014B"/>
  <outline>
    <contour>
      <point x="884" y="-468"/>
      <point x="1116" y="-344"/>
      <point x="1116" y="0" type="curve" smooth="yes"/>
      <point x="1116" y="114" type="line"/>
      <point x="803" y="114" type="line"/>
      <point x="803" y="114"/>
      <point x="803" y="58"/>
      <point x="803" y="58" type="curve"/>
      <point x="803" y="-102"/>
      <point x="747" y="-169"/>
      <point x="533" y="-192" type="curve"/>
      <point x="584" y="-482" type="line"/>
    </contour>
    <component base="n"/>
  </outline>
</glyph>
<glyph name="OE" format="1">
  <advance width="1925"/>
  <unicode hex="0152"/>
  <outline>
    <contour>
      <point x="871" y="-25"/>
      <point x="991" y="0"/>
      <point x="1077" y="0" type="curve"/>
      <point x="1077" y="289" type="line"/>
      <point x="1013" y="268"/>
      <point x="898" y="255"/>
      <point x="752" y="255" type="curve" smooth="yes"/>
      <point x="551" y="255"/>
      <point x="418" y="436"/>
      <point x="418" y="712" type="curve" smooth="yes"/>
      <point x="418" y="992"/>
      <point x="575" y="1176"/>
      <point x="812" y="1176" type="curve" smooth="yes"/>
      <point x="931" y="1176"/>
      <point x="1025" y="1151"/>
      <point x="1077" y="1108" type="curve"/>
      <point x="1077" y="1434" type="line"/>
      <point x="999" y="1434"/>
      <point x="909" y="1457"/>
      <point x="810" y="1457" type="curve" smooth="yes"/>
      <point x="365" y="1457"/>
      <point x="72" y="1161"/>
      <point x="72" y="712" type="curve" smooth="yes"/>
      <point x="72" y="268"/>
      <point x="341" y="-25"/>
      <point x="750" y="-25" type="curve" smooth="yes"/>
    </contour>
    <component base="E" xOffset="827"/>
  </outline>
</glyph>
<glyph name="uogonek" format="1">
  <advance width="1239"/>
  <unicode hex="0173"/>
  <outline>
    <contour>
      <point x="1090" y="-419"/>
      <point x="1143" y="-412"/>
      <point x="1187" y="-400" type="curve"/>
      <point x="1157" y="-222" type="line"/>
      <point x="1140" y="-230"/>
      <point x="1117" y="-234"/>
      <point x="1095" y="-234" type="curve" smooth="yes"/>
      <point x="1055" y="-234"/>
      <point x="1032" y="-206"/>
      <point x="1032" y="-158" type="curve" smooth="yes"/>
      <point x="1032" y="-101"/>
      <point x="1094" y="-30"/>
      <point x="1203" y="38" type="curve"/>
      <point x="968" y="38" type="line"/>
      <point x="863" y="-36"/>
      <point x="804" y="-140"/>
      <point x="804" y="-245" type="curve" smooth="yes"/>
      <point x="804" y="-356"/>
      <point x="890" y="-419"/>
      <point x="1041" y="-419" type="curve" smooth="yes"/>
    </contour>
    <component base="u"/>
    <contour>
      <point x="1115" y="10" type="move" name="_ogonek"/>
    </contour>
  </outline>
</glyph>
<glyph name="florin" format="1">
  <advance width="1178"/>
  <unicode hex="0192"/>
  <outline>
    <contour>
      <point x="447" y="-305"/>
      <point x="606" y="-140"/>
      <point x="646" y="121" type="curve" smooth="yes"/>
      <point x="737" y="715" type="line"/>
      <point x="929" y="715" type="line"/>
      <point x="929" y="930" type="line"/>
      <point x="771" y="930" type="line"/>
      <point x="794" y="1067" type="line" smooth="yes"/>
      <point x="808" y="1151"/>
      <point x="854" y="1194"/>
      <point x="931" y="1194" type="curve" smooth="yes"/>
      <point x="963" y="1194"/>
      <point x="994" y="1191"/>
      <point x="1024" y="1184" type="curve"/>
      <point x="1064" y="1423" type="line"/>
      <point x="1013" y="1438"/>
      <point x="960" y="1446"/>
      <point x="905" y="1446" type="curve" smooth="yes"/>
      <point x="675" y="1446"/>
      <point x="515" y="1302"/>
      <point x="481" y="1079" type="curve" smooth="yes"/>
      <point x="459" y="930" type="line"/>
      <point x="317" y="930" type="line"/>
      <point x="317" y="715" type="line"/>
      <point x="422" y="715" type="line"/>
      <point x="334" y="139" type="line" smooth="yes"/>
      <point x="314" y="11"/>
      <point x="267" y="-53"/>
      <point x="190" y="-53" type="curve" smooth="yes"/>
      <point x="166" y="-53"/>
      <point x="146" y="-50"/>
      <point x="128" y="-43" type="curve"/>
      <point x="78" y="-285" type="line"/>
      <point x="125" y="-298"/>
      <point x="181" y="-305"/>
      <point x="219" y="-305" type="curve" smooth="yes"/>
    </contour>
  </outline>
</glyph>
<glyph name="jdotless" format="1">
  <advance width="582"/>
  <unicode hex="0237"/>
  <outline>
    <contour>
      <point x="218" y="-467"/>
      <point x="450" y="-338"/>
      <point x="450" y="20" type="curve" smooth="yes"/>
      <point x="450" y="974" type="line"/>
      <point x="134" y="974" type="line"/>
      <point x="134" y="974"/>
      <point x="134" y="58"/>
      <point x="134" y="58" type="curve"/>
      <point x="134" y="-102"/>
      <point x="79" y="-169"/>
      <point x="-133" y="-192" type="curve"/>
      <point x="-82" y="-482" type="line"/>
    </contour>
    <contour>
      <point x="291" y="974" type="move" name="top"/>
    </contour>
    <contour>
      <point x="291" y="0" type="move" name="bottom"/>
    </contour>
  </outline>
</glyph>
<glyph name="circumflex" format="1">
  <advance width="785"/>
  <unicode hex="02C6"/>
  <outline>
    <contour>
      <point x="268" y="1186" type="line"/>
      <point x="385" y="1344" type="line"/>
      <point x="513" y="1186" type="line"/>
      <point x="750" y="1186" type="line"/>
      <point x="514" y="1511" type="line"/>
      <point x="266" y="1511" type="line"/>
      <point x="31" y="1186" type="line"/>
    </contour>
  </outline>
</glyph>
<glyph name="caron" format="1">
  <advance width="785"/>
  <unicode hex="02C7"/>
  <outline>
    <contour>
      <point x="516" y="1186" type="line"/>
      <point x="754" y="1511" type="line"/>
      <point x="549" y="1511" type="line"/>
      <point x="393" y="1323" type="line"/>
      <point x="238" y="1511" type="line"/>
      <point x="33" y="1511" type="line"/>
      <point x="268" y="1186" type="line"/>
    </contour>
  </outline>
</glyph>
<glyph name="breve" format="1">
  <advance width="709"/>
  <unicode hex="02D8"/>
  <outline>
    <contour>
      <point x="548" y="1176"/>
      <point x="676" y="1299"/>
      <point x="692" y="1493" type="curve"/>
      <point x="482" y="1493" type="line"/>
      <point x="471" y="1416"/>
      <point x="430" y="1378"/>
      <point x="356" y="1378" type="curve" smooth="yes"/>
      <point x="279" y="1378"/>
      <point x="236" y="1416"/>
      <point x="227" y="1493" type="curve"/>
      <point x="18" y="1493" type="line"/>
      <point x="23" y="1306"/>
      <point x="157" y="1176"/>
      <point x="352" y="1176" type="curve" smooth="yes"/>
    </contour>
  </outline>
</glyph>
<glyph name="dotaccent" format="1">
  <advance width="518"/>
  <unicode hex="02D9"/>
  <outline>
    <contour>
      <point x="368" y="1157"/>
      <point x="444" y="1228"/>
      <point x="444" y="1323" type="curve" smooth="yes"/>
      <point x="444" y="1419"/>
      <point x="368" y="1487"/>
      <point x="260" y="1487" type="curve" smooth="yes"/>
      <point x="154" y="1487"/>
      <point x="74" y="1420"/>
      <point x="74" y="1323" type="curve" smooth="yes"/>
      <point x="74" y="1231"/>
      <point x="153" y="1157"/>
      <point x="260" y="1157" type="curve" smooth="yes"/>
    </contour>
  </outline>
</glyph>
<glyph name="ring" format="1">
  <advance width="555"/>
  <unicode hex="02DA"/>
  <outline>
    <contour>
      <point x="413" y="1186"/>
      <point x="518" y="1281"/>
      <point x="518" y="1407" type="curve" smooth="yes"/>
      <point x="518" y="1530"/>
      <point x="415" y="1622"/>
      <point x="279" y="1622" type="curve" smooth="yes"/>
      <point x="142" y="1622"/>
      <point x="39" y="1527"/>
      <point x="39" y="1401" type="curve" smooth="yes"/>
      <point x="39" y="1278"/>
      <point x="140" y="1186"/>
      <point x="274" y="1186" type="curve" smooth="yes"/>
    </contour>
    <contour>
      <point x="233" y="1331"/>
      <point x="198" y="1363"/>
      <point x="198" y="1405" type="curve" smooth="yes"/>
      <point x="198" y="1447"/>
      <point x="233" y="1479"/>
      <point x="280" y="1479" type="curve" smooth="yes"/>
      <point x="324" y="1479"/>
      <point x="357" y="1447"/>
      <point x="357" y="1405" type="curve" smooth="yes"/>
      <point x="357" y="1363"/>
      <point x="324" y="1331"/>
      <point x="280" y="1331" type="curve" smooth="yes"/>
    </contour>
  </outline>
</glyph>
<glyph name="ogonek" format="1">
  <advance width="545"/>
  <unicode hex="02DB"/>
  <outline>
    <contour>
      <point x="322" y="-419"/>
      <point x="397" y="-413"/>
      <point x="464" y="-400" type="curve"/>
      <point x="434" y="-212" type="line"/>
      <point x="412" y="-220"/>
      <point x="391" y="-224"/>
      <point x="372" y="-224" type="curve" smooth="yes"/>
      <point x="307" y="-224"/>
      <point x="279" y="-199"/>
      <point x="279" y="-148" type="curve" smooth="yes"/>
      <point x="279" y="-105"/>
      <point x="325" y="-56"/>
      <point x="418" y="0" type="curve"/>
      <point x="172" y="0" type="line"/>
      <point x="91" y="-96"/>
      <point x="51" y="-174"/>
      <point x="51" y="-235" type="curve" smooth="yes"/>
      <point x="51" y="-358"/>
      <point x="116" y="-419"/>
      <point x="248" y="-419" type="curve" smooth="yes"/>
    </contour>
  </outline>
</glyph>
<glyph name="tilde" format="1">
  <advance width="785"/>
  <unicode hex="02DC"/>
  <outline>
    <contour>
      <point x="685" y="1184"/>
      <point x="764" y="1290"/>
      <point x="764" y="1477" type="curve"/>
      <point x="590" y="1477" type="line"/>
      <point x="590" y="1416"/>
      <point x="567" y="1386"/>
      <point x="522" y="1386" type="curve" smooth="yes"/>
      <point x="449" y="1386"/>
      <point x="353" y="1479"/>
      <point x="254" y="1479" type="curve" smooth="yes"/>
      <point x="122" y="1479"/>
      <point x="45" y="1371"/>
      <point x="45" y="1186" type="curve"/>
      <point x="226" y="1186" type="line"/>
      <point x="226" y="1245"/>
      <point x="253" y="1274"/>
      <point x="306" y="1274" type="curve" smooth="yes"/>
      <point x="358" y="1274"/>
      <point x="474" y="1184"/>
      <point x="557" y="1184" type="curve" smooth="yes"/>
    </contour>
  </outline>
</glyph>
<glyph name="hungarumlaut" format="1">
  <advance width="832"/>
  <unicode hex="02DD"/>
  <outline>
    <contour>
      <point x="618" y="1186" type="line"/>
      <point x="870" y="1505" type="line"/>
      <point x="621" y="1505" type="line"/>
      <point x="408" y="1186" type="line"/>
    </contour>
    <contour>
      <point x="244" y="1186" type="line"/>
      <point x="492" y="1505" type="line"/>
      <point x="244" y="1505" type="line"/>
      <point x="33" y="1186" type="line"/>
    </contour>
  </outline>
</glyph>
<glyph name="gravecomb" format="1">
  <advance width="549"/>
  <unicode hex="0300"/>
  <outline>
    <component base="grave" xOffset="-140"/>
    <contour>
      <point x="188" y="1509" type="move" name="top"/>
    </contour>
    <contour>
      <point x="346" y="974" type="move" name="_top"/>
    </contour>
  </outline>
</glyph>
<glyph name="acutecomb" format="1">
  <advance width="549"/>
  <unicode hex="0301"/>
  <outline>
    <component base="acute" xOffset="-30"/>
    <contour>
      <point x="228" y="1509" type="move" name="top"/>
    </contour>
    <contour>
      <point x="169" y="974" type="move" name="_top"/>
    </contour>
  </outline>
</glyph>
<glyph name="circumflexcomb" format="1">
  <advance width="785"/>
  <unicode hex="0302"/>
  <outline>
    <component base="circumflex"/>
    <contour>
      <point x="393" y="1511" type="move" name="top"/>
    </contour>
    <contour>
      <point x="391" y="974" type="move" name="_top"/>
    </contour>
  </outline>
</glyph>
<glyph name="tildecomb" format="1">
  <advance width="785"/>
  <unicode hex="0303"/>
  <outline>
    <component base="tilde"/>
    <contour>
      <point x="397" y="1497" type="move" name="top"/>
    </contour>
    <contour>
      <point x="395" y="974" type="move" name="_top"/>
    </contour>
  </outline>
</glyph>
<glyph name="macroncomb" format="1">
  <advance width="850"/>
  <unicode hex="0304"/>
  <outline>
    <component base="macron"/>
    <contour>
      <point x="427" y="1516" type="move" name="top"/>
    </contour>
    <contour>
      <point x="425" y="974" type="move" name="_top"/>
    </contour>
  </outline>
</glyph>
<glyph name="brevecomb" format="1">
  <advance width="709"/>
  <unicode hex="0306"/>
  <outline>
    <component base="breve"/>
    <contour>
      <point x="357" y="1493" type="move" name="top"/>
    </contour>
    <contour>
      <point x="355" y="974" type="move" name="_top"/>
    </contour>
  </outline>
</glyph>
<glyph name="dotaccentcomb" format="1">
  <advance width="518"/>
  <unicode hex="0307"/>
  <outline>
    <component base="dotaccent"/>
    <contour>
      <point x="261" y="1458" type="move" name="top"/>
    </contour>
    <contour>
      <point x="259" y="974" type="move" name="_top"/>
    </contour>
  </outline>
</glyph>
<glyph name="dieresiscomb" format="1">
  <advance width="946"/>
  <unicode hex="0308"/>
  <outline>
    <component base="dieresis"/>
    <contour>
      <point x="471" y="1460" type="move" name="top"/>
    </contour>
    <contour>
      <point x="469" y="974" type="move" name="_top"/>
    </contour>
  </outline>
</glyph>
<glyph name="ringcomb" format="1">
  <advance width="555"/>
  <unicode hex="030A"/>
  <outline>
    <component base="ring" yOffset="-30"/>
    <contour>
      <point x="281" y="1622" type="move" name="top"/>
    </contour>
    <contour>
      <point x="279" y="974" type="move" name="_top"/>
    </contour>
  </outline>
</glyph>
<glyph name="hungarumlautcomb" format="1">
  <advance width="832"/>
  <unicode hex="030B"/>
  <outline>
    <component base="hungarumlaut"/>
    <contour>
      <point x="342" y="974" type="move" name="_top"/>
    </contour>
  </outline>
</glyph>
<glyph name="caroncomb" format="1">
  <advance width="785"/>
  <unicode hex="030C"/>
  <outline>
    <component base="caron"/>
    <contour>
      <point x="396" y="1511" type="move" name="top"/>
    </contour>
    <contour>
      <point x="394" y="974" type="move" name="_top"/>
    </contour>
  </outline>
</glyph>
<glyph name="commaturnedabovecomb" format="1">
  <advance width="494"/>
  <unicode hex="0312"/>
  <outline>
    <contour>
      <point x="160" y="1578"/>
      <point x="100" y="1388"/>
      <point x="99" y="1182" type="curve"/>
      <point x="349" y="1182" type="line"/>
      <point x="362" y="1305"/>
      <point x="404" y="1451"/>
      <point x="486" y="1584" type="curve"/>
      <point x="279" y="1704" type="line"/>
    </contour>
    <contour>
      <point x="295" y="1684" type="move" name="top"/>
    </contour>
    <contour>
      <point x="243" y="974" type="move" name="_top"/>
    </contour>
  </outline>
</glyph>
<glyph name="commaaccentcomb" format="1">
  <advance width="494"/>
  <unicode hex="0326"/>
  <outline>
    <component base="comma" yOffset="-370"/>
    <contour>
      <point x="248" y="0" type="move" name="_bottom"/>
    </contour>
    <contour>
      <point x="185" y="-634" type="move" name="bottom"/>
    </contour>
  </outline>
</glyph>
<glyph name="cedillacomb" format="1">
  <advance width="441"/>
  <unicode hex="0327"/>
  <outline>
    <component base="cedilla" xOffset="-5"/>
    <contour>
      <point x="184" y="0" type="move" name="_bottom"/>
    </contour>
    <contour>
      <point x="256" y="-455" type="move" name="bottom"/>
    </contour>
  </outline>
</glyph>
<glyph name="strokeshortoverlaycomb" format="1">
  <advance width="0"/>
  <unicode hex="0335"/>
  <outline>
    <contour>
      <point x="750" y="620" type="line"/>
      <point x="750" y="852" type="line"/>
      <point x="42" y="852" type="line"/>
      <point x="42" y="620" type="line"/>
    </contour>
  </outline>
</glyph>
<glyph name="strokelongoverlaycomb" format="1">
  <advance width="0"/>
  <unicode hex="0336"/>
  <outline>
    <contour>
      <point x="1569" y="1018" type="line"/>
      <point x="1569" y="1223" type="line"/>
      <point x="0" y="1223" type="line"/>
      <point x="0" y="1018" type="line"/>
    </contour>
  </outline>
</glyph>
<glyph name="quoteleft" format="1">
  <advance width="594"/>
  <unicode hex="2018"/>
  <outline>
    <contour>
      <point x="165" y="1385"/>
      <point x="102" y="1188"/>
      <point x="101" y="974" type="curve"/>
      <point x="371" y="974" type="line"/>
      <point x="385" y="1103"/>
      <point x="430" y="1256"/>
      <point x="518" y="1396" type="curve"/>
      <point x="291" y="1516" type="line"/>
    </contour>
  </outline>
</glyph>
<glyph name="quotedblleft" format="1">
  <advance width="1010"/>
  <unicode hex="201C"/>
  <outline>
    <contour>
      <point x="164" y="1385"/>
      <point x="101" y="1188"/>
      <point x="100" y="974" type="curve"/>
      <point x="370" y="974" type="line"/>
      <point x="384" y="1103"/>
      <point x="429" y="1256"/>
      <point x="517" y="1396" type="curve"/>
      <point x="290" y="1516" type="line"/>
    </contour>
    <contour>
      <point x="579" y="1385"/>
      <point x="516" y="1188"/>
      <point x="515" y="974" type="curve"/>
      <point x="785" y="974" type="line"/>
      <point x="799" y="1103"/>
      <point x="844" y="1256"/>
      <point x="932" y="1396" type="curve"/>
      <point x="705" y="1516" type="line"/>
    </contour>
  </outline>
</glyph>
<glyph name="quotedblright" format="1">
  <advance width="1010"/>
  <unicode hex="201D"/>
  <outline>
    <contour>
      <point x="851" y="1057"/>
      <point x="914" y="1254"/>
      <point x="915" y="1468" type="curve"/>
      <point x="645" y="1468" type="line"/>
      <point x="631" y="1339"/>
      <point x="586" y="1186"/>
      <point x="498" y="1046" type="curve"/>
      <point x="725" y="926" type="line"/>
    </contour>
    <contour>
      <point x="436" y="1057"/>
      <point x="499" y="1254"/>
      <point x="500" y="1468" type="curve"/>
      <point x="230" y="1468" type="line"/>
      <point x="216" y="1339"/>
      <point x="171" y="1186"/>
      <point x="83" y="1046" type="curve"/>
      <point x="310" y="926" type="line"/>
    </contour>
  </outline>
</glyph>
<glyph name="dagger" format="1">
  <advance width="832"/>
  <unicode hex="2020"/>
  <outline>
    <contour>
      <point x="798" y="878" type="line"/>
      <point x="545" y="898" type="line"/>
      <point x="515" y="342" type="line"/>
      <point x="316" y="342" type="line"/>
      <point x="286" y="898" type="line"/>
      <point x="33" y="878" type="line"/>
      <point x="33" y="1124" type="line"/>
      <point x="306" y="1094" type="line"/>
      <point x="276" y="1434" type="line"/>
      <point x="555" y="1434" type="line"/>
      <point x="525" y="1094" type="line"/>
      <point x="798" y="1124" type="line"/>
    </contour>
  </outline>
</glyph>
<glyph name="daggerdbl" format="1">
  <advance width="832"/>
  <unicode hex="2021"/>
  <outline>
    <contour>
      <point x="798" y="908" type="line"/>
      <point x="545" y="928" type="line"/>
      <point x="515" y="671" type="line"/>
      <point x="316" y="671" type="line"/>
      <point x="286" y="928" type="line"/>
      <point x="33" y="908" type="line"/>
      <point x="33" y="1154" type="line"/>
      <point x="306" y="1124" type="line"/>
      <point x="276" y="1434" type="line"/>
      <point x="555" y="1434" type="line"/>
      <point x="525" y="1124" type="line"/>
      <point x="798" y="1154" type="line"/>
    </contour>
    <contour>
      <point x="525" y="439" type="line"/>
      <point x="555" y="129" type="line"/>
      <point x="276" y="129" type="line"/>
      <point x="306" y="439" type="line"/>
      <point x="33" y="409" type="line"/>
      <point x="33" y="655" type="line"/>
      <point x="286" y="635" type="line"/>
      <point x="316" y="892" type="line"/>
      <point x="515" y="892" type="line"/>
      <point x="545" y="635" type="line"/>
      <point x="798" y="655" type="line"/>
      <point x="798" y="409" type="line"/>
    </contour>
  </outline>
</glyph>
<glyph name="bullet" format="1">
  <advance width="865"/>
  <unicode hex="2022"/>
  <outline>
    <contour>
      <point x="280" y="231"/>
      <point x="157" y="355"/>
      <point x="157" y="507" type="curve" smooth="yes"/>
      <point x="157" y="659"/>
      <point x="279" y="781"/>
      <point x="431" y="781" type="curve" smooth="yes"/>
      <point x="583" y="781"/>
      <point x="708" y="658"/>
      <point x="708" y="507" type="curve" smooth="yes"/>
      <point x="708" y="356"/>
      <point x="583" y="231"/>
      <point x="431" y="231" type="curve" smooth="yes"/>
    </contour>
  </outline>
</glyph>
<glyph name="guilsinglleft" format="1">
  <advance width="705"/>
  <unicode hex="2039"/>
  <outline>
    <contour>
      <point x="691" y="151" type="line"/>
      <point x="357" y="487" type="line"/>
      <point x="691" y="831" type="line"/>
      <point x="383" y="831" type="line"/>
      <point x="53" y="487" type="line"/>
      <point x="383" y="151" type="line"/>
    </contour>
  </outline>
</glyph>
<glyph name="euro" format="1">
  <advance width="1178"/>
  <unicode hex="20AC"/>
  <outline>
    <contour>
      <point x="887" y="-20"/>
      <point x="1016" y="11"/>
      <point x="1111" y="65" type="curve"/>
      <point x="1035" y="338" type="line"/>
      <point x="950" y="296"/>
      <point x="877" y="272"/>
      <point x="813" y="272" type="curve" smooth="yes"/>
      <point x="622" y="272"/>
      <point x="512" y="435"/>
      <point x="512" y="721" type="curve" smooth="yes"/>
      <point x="512" y="1008"/>
      <point x="626" y="1172"/>
      <point x="824" y="1172" type="curve" smooth="yes"/>
      <point x="895" y="1172"/>
      <point x="963" y="1159"/>
      <point x="1011" y="1136" type="curve"/>
      <point x="1080" y="1416" type="line"/>
      <point x="998" y="1444"/>
      <point x="894" y="1460"/>
      <point x="816" y="1460" type="curve" smooth="yes"/>
      <point x="421" y="1460"/>
      <point x="194" y="1188"/>
      <point x="194" y="713" type="curve" smooth="yes"/>
      <point x="194" y="247"/>
      <point x="408" y="-20"/>
      <point x="780" y="-20" type="curve" smooth="yes"/>
    </contour>
    <contour>
      <point x="954" y="464" type="line"/>
      <point x="954" y="653" type="line"/>
      <point x="109" y="653" type="line"/>
      <point x="109" y="464" type="line"/>
    </contour>
    <contour>
      <point x="954" y="784" type="line"/>
      <point x="954" y="973" type="line"/>
      <point x="109" y="973" type="line"/>
      <point x="109" y="784" type="line"/>
    </contour>
  </outline>
</glyph>
<glyph name="trademark" format="1">
  <advance width="1579"/>
  <unicode hex="2122"/>
  <outline>
    <contour>
      <point x="815" y="772" type="line"/>
      <point x="815" y="1167" type="line"/>
      <point x="821" y="1167" type="line"/>
      <point x="946" y="772" type="line"/>
      <point x="1081" y="772" type="line"/>
      <point x="1221" y="1167" type="line"/>
      <point x="1225" y="1167" type="line"/>
      <point x="1225" y="772" type="line"/>
      <point x="1395" y="772" type="line"/>
      <point x="1395" y="1434" type="line"/>
      <point x="1162" y="1434" type="line"/>
      <point x="1024" y="1051" type="line"/>
      <point x="1020" y="1051" type="line"/>
      <point x="894" y="1434" type="line"/>
      <point x="647" y="1434" type="line"/>
      <point x="647" y="772" type="line"/>
    </contour>
    <contour>
      <point x="437" y="777" type="line"/>
      <point x="437" y="1231" type="line"/>
      <point x="580" y="1231" type="line"/>
      <point x="580" y="1434" type="line"/>
      <point x="81" y="1434" type="line"/>
      <point x="81" y="1231" type="line"/>
      <point x="224" y="1231" type="line"/>
      <point x="224" y="777" type="line"/>
    </contour>
  </outline>
</glyph>
<glyph name="acutecomb.case" format="1">
  <advance width="621"/>
  <outline>
    <contour>
      <point x="323" y="1186" type="line"/>
      <point x="606" y="1419" type="line"/>
      <point x="235" y="1419" type="line"/>
      <point x="5" y="1186" type="line"/>
    </contour>
    <contour>
      <point x="228" y="1509" type="move" name="top"/>
    </contour>
    <contour>
      <point x="169" y="974" type="move" name="_top"/>
    </contour>
  </outline>
</glyph>
<glyph name="brevecomb.case" format="1">
  <advance width="600"/>
  <outline>
    <contour>
      <point x="574" y="1176"/>
      <point x="693" y="1264"/>
      <point x="712" y="1443" type="curve"/>
      <point x="502" y="1443" type="line"/>
      <point x="489" y="1386"/>
      <point x="441" y="1358"/>
      <point x="356" y="1358" type="curve" smooth="yes"/>
      <point x="266" y="1358"/>
      <point x="217" y="1386"/>
      <point x="207" y="1443" type="curve"/>
      <point x="-2" y="1443" type="line"/>
      <point x="4" y="1264"/>
      <point x="121" y="1176"/>
      <point x="352" y="1176" type="curve" smooth="yes"/>
    </contour>
    <contour>
      <point x="357" y="1493" type="move" name="top"/>
    </contour>
    <contour>
      <point x="355" y="974" type="move" name="_top"/>
    </contour>
  </outline>
</glyph>
<glyph name="caron.alt" format="1">
  <advance width="577"/>
  <outline>
    <contour>
      <point x="400" y="1057"/>
      <point x="446" y="1254"/>
      <point x="447" y="1468" type="curve"/>
      <point x="177" y="1468" type="line"/>
      <point x="168" y="1339"/>
      <point x="138" y="1186"/>
      <point x="80" y="1046" type="curve"/>
      <point x="307" y="926" type="line"/>
    </contour>
  </outline>
</glyph>
<glyph name="caroncomb.alt" format="1">
  <advance width="402"/>
  <outline>
    <contour>
      <point x="199" y="1174" type="line"/>
      <point x="348" y="1516" type="line"/>
      <point x="89" y="1516" type="line"/>
      <point x="51" y="1174" type="line"/>
    </contour>
    <contour>
      <point x="207" y="974" type="move" name="_topright"/>
    </contour>
  </outline>
</glyph>
<glyph name="caroncomb.case" format="1">
  <advance width="600"/>
  <outline>
    <contour>
      <point x="516" y="1186" type="line"/>
      <point x="804" y="1421" type="line"/>
      <point x="549" y="1421" type="line"/>
      <point x="393" y="1323" type="line"/>
      <point x="238" y="1421" type="line"/>
      <point x="-27" y="1421" type="line"/>
      <point x="268" y="1186" type="line"/>
    </contour>
    <contour>
      <point x="396" y="1511" type="move" name="top"/>
    </contour>
    <contour>
      <point x="394" y="974" type="move" name="_top"/>
    </contour>
  </outline>
</glyph>
<glyph name="cedillacomb.case" format="1">
  <advance width="600"/>
  <outline>
    <contour>
      <point x="379" y="-455"/>
      <point x="498" y="-386"/>
      <point x="498" y="-248" type="curve" smooth="yes"/>
      <point x="498" y="-130"/>
      <point x="419" y="-68"/>
      <point x="258" y="-62" type="curve"/>
      <point x="258" y="60" type="line"/>
      <point x="115" y="60" type="line"/>
      <point x="115" y="-162" type="line"/>
      <point x="124" y="-161"/>
      <point x="131" y="-160"/>
      <point x="136" y="-160" type="curve" smooth="yes"/>
      <point x="197" y="-160"/>
      <point x="227" y="-182"/>
      <point x="227" y="-226" type="curve" smooth="yes"/>
      <point x="227" y="-255"/>
      <point x="193" y="-279"/>
      <point x="124" y="-279" type="curve" smooth="yes"/>
      <point x="99" y="-279"/>
      <point x="75" y="-277"/>
      <point x="52" y="-273" type="curve"/>
      <point x="52" y="-451" type="line"/>
      <point x="80" y="-454"/>
      <point x="109" y="-455"/>
      <point x="140" y="-455" type="curve" smooth="yes"/>
    </contour>
    <contour>
      <point x="184" y="0" type="move" name="_bottom"/>
    </contour>
    <contour>
      <point x="256" y="-455" type="move" name="bottom"/>
    </contour>
  </outline>
</glyph>
<glyph name="circumflexcomb.case" format="1">
  <advance width="600"/>
  <outline>
    <contour>
      <point x="236" y="1186" type="line"/>
      <point x="383" y="1324" type="line"/>
      <point x="551" y="1186" type="line"/>
      <point x="808" y="1186" type="line"/>
      <point x="512" y="1451" type="line"/>
      <point x="264" y="1451" type="line"/>
      <point x="-21" y="1186" type="line"/>
    </contour>
    <contour>
      <point x="393" y="1511" type="move" name="top"/>
    </contour>
    <contour>
      <point x="391" y="974" type="move" name="_top"/>
    </contour>
  </outline>
</glyph>
<glyph name="commaaccentcomb.case" format="1">
  <advance width="600"/>
  <outline>
    <contour>
      <point x="339" y="-460"/>
      <point x="385" y="-303"/>
      <point x="386" y="-132" type="curve"/>
      <point x="116" y="-132" type="line"/>
      <point x="107" y="-227"/>
      <point x="77" y="-340"/>
      <point x="19" y="-444" type="curve"/>
      <point x="246" y="-564" type="line"/>
    </contour>
    <contour>
      <point x="248" y="0" type="move" name="_bottom"/>
    </contour>
    <contour>
      <point x="185" y="-634" type="move" name="bottom"/>
    </contour>
  </outline>
</glyph>
<glyph name="four.sup" format="1">
  <advance width="2005"/>
  <outline>
    <contour>
      <point x="1784" y="-1" type="line"/>
      <point x="1784" y="176" type="line"/>
      <point x="1915" y="176" type="line"/>
      <point x="1915" y="361" type="line"/>
      <point x="1784" y="361" type="line"/>
      <point x="1784" y="853" type="line"/>
      <point x="1487" y="854" type="line"/>
      <point x="1165" y="348" type="line"/>
      <point x="1165" y="176" type="line"/>
      <point x="1571" y="176" type="line"/>
      <point x="1571" y="-1" type="line"/>
    </contour>
    <contour>
      <point x="1571" y="584" type="line"/>
      <point x="1571" y="361" type="line"/>
      <point x="1429" y="361" type="line"/>
    </contour>
  </outline>
</glyph>
<glyph name="fractslash" format="1">
  <advance width="2005"/>
  <outline>
    <contour>
      <point x="1536" y="1384" type="line"/>
      <point x="1302" y="1484" type="line"/>
      <point x="371" y="-30" type="line"/>
      <point x="605" y="-130" type="line"/>
    </contour>
  </outline>
</glyph>
<glyph name="gravecomb.case" format="1">
  <advance width="600"/>
  <outline>
    <contour>
      <point x="636" y="1186" type="line"/>
      <point x="446" y="1409" type="line"/>
      <point x="95" y="1409" type="line"/>
      <point x="319" y="1186" type="line"/>
    </contour>
    <contour>
      <point x="328" y="1509" type="move" name="top"/>
    </contour>
    <contour>
      <point x="486" y="974" type="move" name="_top"/>
    </contour>
  </outline>
</glyph>
<glyph name="hungarumlautcomb.case" format="1">
  <advance width="842"/>
  <outline>
    <contour>
      <point x="663" y="1186" type="line"/>
      <point x="885" y="1395" type="line"/>
      <point x="606" y="1395" type="line"/>
      <point x="423" y="1186" type="line"/>
    </contour>
    <contour>
      <point x="269" y="1186" type="line"/>
      <point x="487" y="1395" type="line"/>
      <point x="209" y="1395" type="line"/>
      <point x="28" y="1186" type="line"/>
    </contour>
    <contour>
      <point x="362" y="974" type="move" name="_top"/>
    </contour>
  </outline>
</glyph>
<glyph name="ogonekcomb.case" format="1">
  <advance width="600"/>
  <outline>
    <contour>
      <point x="282" y="-419"/>
      <point x="357" y="-413"/>
      <point x="424" y="-400" type="curve"/>
      <point x="394" y="-212" type="line"/>
      <point x="372" y="-220"/>
      <point x="351" y="-224"/>
      <point x="332" y="-224" type="curve" smooth="yes"/>
      <point x="267" y="-224"/>
      <point x="239" y="-199"/>
      <point x="239" y="-148" type="curve" smooth="yes"/>
      <point x="239" y="-105"/>
      <point x="298" y="-56"/>
      <point x="418" y="0" type="curve"/>
      <point x="172" y="0" type="line"/>
      <point x="74" y="-56"/>
      <point x="11" y="-124"/>
      <point x="11" y="-235" type="curve" smooth="yes"/>
      <point x="11" y="-358"/>
      <point x="76" y="-419"/>
      <point x="208" y="-419" type="curve" smooth="yes"/>
    </contour>
    <contour>
      <point x="329" y="10" type="move" name="_ogonek"/>
    </contour>
  </outline>
</glyph>
<glyph name="percentZero" format="1">
  <advance width="1776"/>
  <outline>
    <contour>
      <point x="637" y="747"/>
      <point x="793" y="904"/>
      <point x="793" y="1112" type="curve" smooth="yes"/>
      <point x="793" y="1301"/>
      <point x="648" y="1444"/>
      <point x="455" y="1444" type="curve" smooth="yes"/>
      <point x="247" y="1444"/>
      <point x="90" y="1289"/>
      <point x="90" y="1085" type="curve" smooth="yes"/>
      <point x="90" y="893"/>
      <point x="236" y="747"/>
      <point x="430" y="747" type="curve" smooth="yes"/>
    </contour>
    <contour>
      <point x="392" y="983"/>
      <point x="353" y="1031"/>
      <point x="353" y="1095" type="curve" smooth="yes"/>
      <point x="353" y="1159"/>
      <point x="394" y="1208"/>
      <point x="449" y="1208" type="curve" smooth="yes"/>
      <point x="497" y="1208"/>
      <point x="534" y="1163"/>
      <point x="534" y="1103" type="curve" smooth="yes"/>
      <point x="534" y="1035"/>
      <point x="494" y="983"/>
      <point x="442" y="983" type="curve" smooth="yes"/>
    </contour>
  </outline>
</glyph>
<glyph name="ringcomb.case" format="1">
  <advance width="600"/>
  <outline>
    <component base="ringcomb" yOffset="181"/>
    <contour>
      <point x="280" y="1679" type="move" name="top"/>
    </contour>
    <contour>
      <point x="279" y="1144" type="move" name="_top"/>
    </contour>
  </outline>
</glyph>
